<svg xmlns="http://www.w3.org/2000/svg" width="167" height="60"><g fill="#026CB6" fill-rule="nonzero"><path d="M54.38 31c0-7.95 5.84-14.23 14.16-14.23 8.2 0 14.15 6.17 14.15 14.24-.12 7.97-5.96 14.14-14.16 14.14-8.32 0-14.16-6.17-14.16-14.13m24.38 0c0-5.93-4.04-10.75-10.22-10.75-6.18 0-10.23 4.82-10.23 10.76 0 5.95 4.06 10.77 10.24 10.77 6.18 0 10.22-4.93 10.22-10.76"/><path d="M106.74 23.27c-1.58-2-4.05-3.14-6.52-3.14-6.07 0-10.1 4.82-10.1 11 0 5.7 3.8 10.53 10.1 10.53 3.15 0 5.5-1.35 7.08-3.6l3.14 2.37c-.78 1.12-4.04 4.7-10.22 4.7-8.65 0-13.93-7.17-13.93-14 0-8.42 5.72-14.47 14.14-14.47 3.6 0 7.3 1.34 9.44 4.15l-3.14 2.47z"/><path d="M114.83 17.44h3.7v11.2h13.94v-11.2h3.7v27.02h-3.7V32.13h-13.94v12.33h-3.7"/><path d="M151.68 17.44h3.37l11.57 27.02h-4.27l-2.7-6.72h-12.92l-2.7 6.72h-4.26l11.9-27.02zm6.5 17.16l-5.04-12.45h-.1l-5.18 12.45h10.33z"/><path d="M19.77 26.75c0-2.02 1.7-3.7 3.7-3.7 2.03 0 3.72 1.68 3.72 3.7 0 2.02-1.7 3.7-3.72 3.7V30c1.8 0 3.26-1.46 3.26-3.25 0-1.8-1.46-3.25-3.26-3.25-1.8 0-3.26 1.45-3.26 3.25S21.68 30 23.48 30v.45c-2.02 0-3.7-1.68-3.7-3.7"/><path d="M16.85 26.75c0-3.7 3.04-6.73 6.74-6.73s6.74 3.03 6.74 6.73c0 3.7-3.04 6.73-6.75 6.73v-.45c3.48 0 6.3-2.8 6.3-6.28 0-3.48-2.82-6.28-6.3-6.28-3.5 0-6.3 2.8-6.3 6.28 0 3.47 2.8 6.28 6.3 6.28v.45c-3.7 0-6.75-3.03-6.75-6.73"/><path d="M13.6 26.75c0-5.5 4.5-9.98 10-9.98s10 4.5 10 9.98c0 5.5-4.5 9.98-10 9.98v-.56c5.27 0 9.43-4.26 9.54-9.42 0-5.27-4.27-9.42-9.55-9.53-5.3 0-9.44 4.26-9.56 9.53 0 5.27 4.27 9.42 9.55 9.42V36.6c-5.5.13-10-4.36-10-9.85"/><path d="M10.45 26.75c0-7.18 5.84-13 13.14-13 7.18 0 13.03 5.82 13.03 13 0 7.17-5.85 13-13.04 13v-.44c6.96 0 12.58-5.6 12.58-12.55 0-6.95-5.62-12.56-12.6-12.56-6.95 0-12.57 5.6-12.57 12.55 0 6.95 5.63 12.56 12.6 12.56v.45c-7.3 0-13.15-5.83-13.15-13"/><path d="M7.08 26.75c0-9.08 7.4-16.48 16.5-16.48 9.12 0 16.53 7.4 16.53 16.48s-7.4 16.48-16.5 16.48v-.44c8.87 0 16.06-7.17 16.06-16.03 0-8.86-7.2-16.03-16.07-16.03-8.88 0-16.07 7.17-16.07 16.03 0 8.86 7.2 16.03 16.06 16.03v.46c-9.22 0-16.52-7.4-16.52-16.48"/><path d="M23.26 10.5h.45v12.77h-.44z"/><path d="M11.9 15.43l.35-.34 8.98 8.96-.33.33"/><path d="M7.3 26.52h12.8v.45H7.3z"/><path d="M11.9 38.07l9-8.97.33.34-8.98 8.97"/><path d="M23.26 30.22h.45V43h-.44z"/><path d="M25.87 29.32l.32-.3 8.92 8.97-.32.3z"/><path d="M27.08 26.52h12.8v.45H27.1z"/><path d="M25.84 24.06l9.1-8.97.23.33-9 8.96"/><path d="M21 27.76c.12 0 .12.1.12.22h.1c.24-.22.35-.56.46-.78 0 0 .12 0 .12-.1 0-.13-.23-.24-.23-.35-.1.22-.34 0-.45.1v.12h.1v.23c-.1-.1-.2-.1-.32-.1.1 0 0 0 0 .1-.23 0-.45 0-.56.1-.12 0-.12 0-.23-.1-.1.1-.1.22-.2.22l-.13-.1c.12-.12.23-.12.23-.23v-.35c.1-.1.1-.23.22-.23s.34.12.45 0l.12.12v.1c-.13.12-.24.12-.24.23 0 .12 0 .12.1.12.13 0 .13-.13.24-.13 0-.1.1 0 .1 0h.35c.1 0 .1-.33 0-.45v-.1-.12c0-.1.22-.1.22 0v.1s0 .12.1 0v-.2s.13.1.24.1h.23c.12 0 .12-.1 0-.22h-.1c-.12.1-.23.1-.23.1-.12 0-.12-.1-.23-.1-.1 0-.22.1-.22 0-.12 0-.12-.12-.12-.23l.12-.1c.1 0 .22 0 .33-.12 0-.1.12-.23.12-.23h.1c.12 0 .23 0 .35-.1.1 0 .22-.12.33-.23.12 0 .12-.12.23-.12 0 0 0-.1.12-.1v-.57c0-.1.1-.1.1-.1h-.1s-.1-.12 0-.12c0 0 .22 0 .22-.1.12-.13 0-.35-.1-.35-.12-.1-.23 0-.34 0 0 0 0 .12-.12.12-.1 0-.22-.1-.1-.22v-.1h-.12l-.34.32v.1c0 .13 0 .24-.1.24h-.12c0 .1.22.1.1.22-.1.1-.22.1-.44.23-.34.12-.67 0-1 0h-.57c-.13 0-.13.12-.24.23v-.22c0-.1-.1 0-.1-.1-.24-.45-.8-.34-1.25-.34-.1 0-.1.1-.1.1-.1.12-.22 0-.34 0l-.1.12c-.12 0-.23-.1-.35 0-.1.1-.1.1-.2.1v.13h-.12c-.1 0-.34 0-.34.12 0 .1 0 .33-.1.33-.12 0-.35 0-.46.12-.1 0-.1.1-.23.1-.22.46-.45.8-.45 1.35v.12c-.22.45-.33.67-.67 1.23-.1.22-.22.67 0 .78.1.12 0 .23-.22.23s-.44 0-.44-.23c0-.1-.23-.1-.34-.1H13.37c-.22 0-.22.33-.34.44-.1.1-.33.1-.33.22v.22s-.12 0-.12.1v.12c0 .23-.1.34 0 .56v.12c0 .22 0 .33-.1.56-.12.22-.35.22-.57.22h-1.1c-.13 0-.13-.1-.24-.1-.1-.12-.1-.24-.1-.24-.12-.1-.35 0-.46.12.1 0 0 .1 0 .1-.1 0-.23.12-.34.23-.1.12-.22-.22-.22-.33 0-.12-.1-.12-.23-.12v.12h-.1c-.1.1.1.1.1.1v.12h-.1c0 .1-.1.1-.1.1-.12 0-.12.13-.12 0v-.2h-.12c0 .1 0 .1-.1.1v.1h.22c.1.13.1.24.1.35 0 .1 0 .22-.1.1-.12-.1 0-.2 0-.32h-.12c.12.22-.1.33.12.56.1.12-.23.23-.12.23 0 0 .12.1.23.1v-.1s.1-.1.1 0v.1H9V32.7c0 .12.2 0 .2.12 0 .1-.1.1 0 .23 0 0 .13 0 .13.1v.12s.1 0 .1.1c.12 0 .12 0 .12-.1.1 0 .1-.1.1-.22 0 0 0-.12-.1 0v-.23c0-.1-.1-.1-.1-.22.1 0 .1 0 .2-.1 0 0 .12 0 .12.1v.1c.12 0 .12.12.12.12.1 0 .1.1.2.23h.35v-.12l.1.13c0 .1 0 .22.12.33h.12l.1.12h.1c.12 0 .12.1.12.1.12 0 .23 0 .23.12.1.1.1.22.22.45 0 .1.1.1.1.1s0 .12.13.12c.1.1.22.1.33.1 0 0 .12-.1.23-.1h.1c.12.23.12.45.35.45.12 0 .12.1.23.23h.23s0 .1.1.1c.12.12.23.12.23.23v.1c.1 0 .22-.1.22 0 .1.13.22.13.22.24h.12v-.1c0-.13.1 0 .22-.13.1 0 .1-.23.1-.23.13 0 .24.1.35.22h.1c.13.1.13.33.24.33.22 0 .22.1.45.22.1 0 .22.12.33.12h.12c.1 0 .1 0 .22-.12.1-.1.33-.1.44-.22l.1-.1c.24-.12.57.1.8 0 .1 0 .1 0 .22-.12.12-.1.23-.33.12-.44-.12-.23-.23-.56-.34-.8-.1-.1-.23-.2-.34-.32h-.1c-.12 0-.12-.12-.12-.23 0 0-.1 0-.1-.1V33.36c-.13 0-.24-.1-.46-.1 0 0-.12 0-.12-.12v-.1c.12-.13.23-.13.34-.13v-.32s0-.1-.1-.1c0-.13.1-.24 0-.35-.12-.1-.24-.22-.24-.34 0 0-.1 0-.1-.12v-.56c0-.1-.12-.1 0-.22l.1-.12c.12 0 .12-.1.12-.22-.12-.1-.23 0-.23 0V30.22l-.12-.1v-.23s0-.12-.1 0v-.24c0-.1-.13-.22-.24-.1 0 0-.1.1-.22 0v-.12s.1 0 .1-.1c.12-.12 0-.24 0-.24-.1-.1-.22-.22-.1-.33-.12 0-.34 0-.34-.23 0-.22 0-.33-.1-.45v-.34s0-.1.1-.1c.22 0 .45 0 .45-.13.1-.1-.1-.33 0-.33.22-.1.45 0 .67-.23.12 0 .12-.1 0-.22 0-.1-.1-.23-.1-.23-.12-.1-.23 0-.35-.22v-.22c0-.12.12-.12.23-.23.22-.1.34 0 .56.1l.1.13v.1c0 .23.13.46 0 .68 0 .1-.1.1-.1.23h.1c0 .1.13.32 0 .43-.1.12-.1 0-.32 0-.12 0-.12 0-.12.12l.12.1c.45.12.56.12 1 .23.12 0 .12.1.23.1h.33c0 .13.12.13.12.13.1.12.1.34.23.34.1-.1.22 0 .22 0-.1.1 0 .23 0 .34.1.1.23.1.34.22.1.12.2.12.2 0 0-.1-.1-.22 0-.33.12.22 0 .45.12.67.12.1.12.22.23.22.1 0 .1-.1.1-.22v-.1c0-.12 0-.12.12-.24 0-.1.12-.22.12-.33v-.12c0-.1.2-.22.32-.22v-.1c.12 0 0-.24.12-.24 0-.12.1-.12.1-.23 0 0 .12-.1 0-.1.57.1.57 0 .57 0"/><path d="M16.3 27.53h-.12v.12l.1.1v.34c0 .1.12.22.24.1.1-.1.22-.33.1-.44-.22 0-.1-.1-.33-.23"/><path d="M16.07 28.54c.1.23.22.1.33.1v-.1c-.1-.1-.1-.1-.33 0 .1-.1 0-.1 0-.1v.1"/><path d="M16.4 29c0-.23-.1-.23-.22-.12-.1.1 0 .34.1.45 0 0 0 .1.12.1 0 .12.12 0 .23 0 0-.1 0-.1.1-.1-.1-.1-.2-.34-.33-.34"/><path d="M16.07 28.1c0-.12-.12-.12 0 0-.12 0-.12 0-.12.1 0 .12 0 .23.12.23 0 0 .1 0 .1-.1-.1-.12-.1-.12-.1-.24"/><path d="M16.52 28.77l.1-.12h.12v-.1c-.1 0-.1.1-.22.1s0 .12 0 .12"/><path d="M16.4 29.78c0 .1 0 .1.12.1h.1v-.1h-.22c0-.12 0 0 0 0"/><path d="M16.63 30.56c0-.1.1-.1 0-.22h-.1c0 .1.1.22.1.22"/><path d="M9.55 33.36v.12h.22c-.1 0-.1-.23-.22-.12"/><path d="M10.22 34.15c-.1.1.12.22.23.22v-.22s-.1-.1-.23 0"/><path d="M10.56 34.6c0 .22.1.33.23.33.1-.22 0-.33-.24-.33"/><path d="M21.9 28.77c.23-.12.46-.12.68-.12.45 0 .45-.67.68-1 0-.12 0-.34-.12-.45-.1-.23-.67 0-.78-.23-.1-.1.34.12.34-.1 0-.12 0-.12-.12-.23h-.22c-.23.22-.34.56-.45.9-.33.44-.78.78-1 1.34 0 .1 0 .1.1.22.35.12.68-.22.9-.33"/><path d="M23.93 27.65c-.1 0-.1 0-.22.1V28h.12c0-.1 0-.1-.1-.1.2-.12.2-.23.2-.23"/><path d="M22.47 29.33c.1.22.56.1.56 0s-.33-.23-.45-.23c-.22 0 .12.12-.1.23"/><path d="M23.03 30.78c.1-.1.1-.22.1-.33l-.32.33h.23"/><path d="M25.05 27.76v-.1h-.22c-.1 0-.1-.13-.1-.24 0-.1-.12-.22-.12-.33-.1 0-.1.2-.1.2.22.23.33.57.55.46"/><path d="M22.36 26.4c-.1-.1-.1 0 0 0-.1.12 0 .12 0 0"/><path d="M9.1 30.67s0-.1-.1-.1h-.12v.1s.1.1.22 0"/><path d="M9.9 30.67c.1 0 .2-.1.1-.22-.1-.1-.34 0-.23.1-.1.12 0 .23.12.12"/><path d="M22.7 22.82c0-.1.1-.1.1-.22h-.1c-.12 0-.12.1 0 .22-.12-.1-.12-.1 0 0-.12 0 0 0 0 0"/><path d="M23.03 22.7s.1-.1 0-.1h-.1s0 .1.1.1"/><path d="M21.8 25.63c0 .1.22.33.33.22.12-.1 0-.22 0-.22-.1-.1-.22-.1-.33 0"/><path d="M22.13 26.52v-.1h-.22-.1s0 .1.1.1c0-.1.12 0 .23 0"/><path d="M21.8 26.75c-.12 0 0 .1 0 .22.1 0 .1 0 .22-.1 0-.12.1-.23 0-.23s-.22 0-.22.1"/><path d="M21.57 26.4c0 .12-.1.24 0 .35 0 .1.1 0 .1 0 0-.1 0-.23.13-.23h-.12v-.1h-.1"/><path d="M30.1 34.37c.12 0 0-.1 0 0"/><path d="M23.6 30c0 .1 0 0 0 0l-.12-.1c0-.12-.1.1-.22 0 .1.1 0 .1-.12.2 0 .12.12.12.12.12 0 .12-.12.12 0 .23l-.12.1s-.1.12 0 .12c.12.1.23-.1.34-.1h.1c.13 0 .13-.12.24-.23h-.23s-.12 0 0-.34c0 .1 0 0 0 0"/><path d="M24.27 32.13c0 .1.1.1 0 0 .1 0 .1-.1.1-.22h-.1v.23"/><path d="M24.38 31.9c.1 0 0-.1 0-.1h-.1s0 .1.1.1"/><path d="M25.05 32.24s0-.1 0 0c-.1 0-.1-.1-.22 0h-.1v.1c.2-.1.2-.1.32-.1"/><path d="M26.18 32.13v-.1c-.1 0-.23.1-.34 0v.1h-.1c.2.1.33 0 .44 0"/><path d="M26.63 31.68c0 .23.22.1.22 0 .1-.1 0-.1-.22 0l.1-.1c0 .1-.1.1-.1.1"/><path d="M32.02 28.1c0 .1.1.1.23.1.1 0 .22 0 .33-.1 0-.23-.1-.34-.33-.34-.23.1-.23.22-.23.33"/><path d="M32.02 33.8h-.1c-.12.57-.7 1.36 0 1.7.2.22.55-.12.66-.34 0-.34 0-1.12-.56-1.35"/><path d="M30.34 31.35c-.12 0-.12.22 0 .22 0 0 .1 0 .1-.1v-.12h-.1"/><path d="M30.78 37.06v.23s.23-.12 0-.24"/><path d="M33.37 23.95h-.1v.22c-.24.45-.8 1-.46 1.57.12-.1.23-.22.34-.45.12-.35.34-.68.45-1.13 0 0-.12-.22-.23-.22"/><path d="M32.36 25.96c0 .12 0 .12.1.12.12 0 .12-.12 0-.12 0-.1 0-.1-.1 0"/><path d="M26.63 22.5c-.1-.24-.23 0-.34 0l-.12-.12h-.1c-.13 0 0 .22.1.22s.1-.1.1 0c.12.1 0 .34.24.22.1 0 .22-.1.33-.1.1 0 .1-.12.1-.23.13 0 .24-.12.35 0 0 0 0 .1.1.1 0 .1.13.1.24.1.1 0 .22 0 .34-.1.1-.1.1-.22 0-.34h-.23c-.1 0-.1-.1-.22-.1-.45-.12-.68.22-.9.33"/><path d="M27.64 22.7s-.1 0 0 0h-.1.1z"/><path d="M25.5 22.7h.34c0-.2-.22-.1-.34-.1.12-.1.12 0 0 .1 0-.1 0-.1 0 0-.1-.1 0 0 0 0"/><path d="M25.95 23.4c.12-.13.34-.24.45-.35v-.1c0-.13-.1-.13-.22-.24 0 .12-.1.12-.1.12-.13.12-.24.12-.24.23v.22c.1.34.1.23.1.12"/><path d="M24.27 22.26v.12c.1.1.1 0 0-.12"/><path d="M20.22 19.8c.12.1.34.1.45.1l.12-.1c-.13-.1-.24 0-.24-.1h-.1c-.12-.13-.24 0-.24.1-.1 0 0 0 0 0"/><path d="M30.45 21.6c0 .1-.1 0-.23.1v.12c.12.1.23 0 .34 0 0 0 .1-.12.1 0v.1c-.1 0-.1.12-.1.12h-.22-.12v.22c-.1.12-.45.23-.33.45.1.12.32.12.55.12 0-.22.1-.22.22-.33 0 0 0-.12-.1-.12v-.12c.1 0 .1-.1.1-.1v-.12c.1 0 .23-.1.23-.1 0-.12-.12-.24-.12-.35 0 0 0-.12.12-.12v-.1h-.12s-.1 0 0 .1c-.1 0-.22 0-.33.1 0-.2.1 0 0 0"/><path d="M29.32 22.7c0 .12.12.12.23 0h-.23"/><path d="M30.9 22.5c-.12.1.1.1.22.1 0-.1-.1-.1-.22-.1"/><path d="M31.35 21.93c-.12 0-.12 0 0 0-.12 0-.12.1 0 0 0 .1 0 .1 0 0"/><path d="M28.76 17.44c.1.12.23.12.23.23v.45l.1.1v.23c0 .1.1.34.1.45.12 0 .12.1.12.1 0 .13 0 .13.12.24 0 .1.1 0 .22.1.1.12.23.35.34.46 0 0 .1 0 .1.1v.12c.24 0 .57.1.46.45.1-.1.22-.1.22-.22s.12-.34 0-.45c0-.1-.1-.1-.22-.23v-.22c0-.1-.1-.1-.1-.1 0-.12-.12-.35.1-.35v-.1h-.22v-.12c0-.12 0-.23-.12-.34-.1-.1-.22-.1-.33-.1-.13-.12-.13-.12-.24-.12h-.22c-.23-.23-.34-.45-.45-.68-.13-.1-.24-.1-.35 0 .1-.1.1-.1.1 0 0-.1 0-.1 0 0 0-.1 0 0 0 0"/><path d="M27.75 17.78c-.1.1 0 .22 0 .22h.45c.1 0 .1-.1.1-.1.13-.12.24 0 .46-.12 0 .1 0 .1.1.1 0-.1 0-.2-.1-.2-.1-.12-.1-.24-.22-.35h-.1c0 .23-.13.1-.35.23v0h-.24c0 .1-.1.22-.1.22"/><path d="M25.17 13.4c-.12-.22-.34-.44-.23-.78.34.1.68.1 1 0 .24-.1.58 0 .8-.1v-.23c-.34.1-.56-.24-.8-.13-.32.23-.66.23-1 .34-.22.12-1 0-1 .46.33 0 .78 0 1 .34 0 .1.1.1.23.1"/><path d="M26.3 15.1c.1.2.33.2.44.2 0-.1 0-.1-.1-.2h-.35"/><path d="M25.95 15.65c-.1 0 0 .1.12.22 0-.1.1-.33-.12-.22"/><path d="M25.73 15.3c.1-.1 0-.2-.1-.2v.1l.1.1"/><path d="M26.74 16.55s0 .1 0 0c.1-.12.1-.23.1-.23h-.1c-.1.1 0 .23 0 .23"/><path d="M27.08 16.55v.1c.1.12.1 0 0-.1.1.1.1.1 0 0 .1 0 0 .1 0 0"/><path d="M26.96 16.88c.12-.1.12-.1 0 0l.12-.1c0-.12-.12-.12-.23 0-.1 0 .1 0 .1.1"/><path d="M27.08 16.88c0 .1.1.23.22.1 0 0 .1-.1 0-.1h-.22z"/><path d="M27.64 17.1c0-.1-.1-.22-.1-.22s-.13.1 0 .1c0 .13 0 .13.1.13"/><path d="M27.75 17.44h.1v-.22h-.2v.1l.1.12"/><path d="M27.53 17.67c.1-.1.1-.1 0-.23h-.12s0 .12-.1.12c.1.1.1.1.23.1"/><path d="M27.2 12.06c-.12-.1-.12-.1-.24-.1.12.1.12.2.23.1"/><path d="M31 14.86c.12.12.23 0 .23.12.12.1.12.22.23.22.1 0 .1 0 .1-.1 0-.24 0-.46-.2-.46h-.58c-.1 0-.1.1-.1.22.1-.1.22-.1.33 0"/><path d="M35.62 20.7c-.12-.12-.12-.34-.23-.45-.12-.12-.23-.12-.35-.23v-.22l-.1-.1c-.12-.24-.12-.35-.34-.35 0-.22-.1-.22-.33-.34v-.1c0-.1-.1-.1-.1-.1h-.13c-.1-.12-.22-.24-.22-.35 0-.1-.23-.22-.34-.33l-.1-.12c-.12 0-.24 0-.24-.1 0-.23-.22-.34-.33-.46-.22-.1 0-.45-.1-.78 0-.1-.12-.1-.23-.1 0 0-.1 0-.1-.13-.12-.1 0-.33-.12-.44-.12-.24-.34-.35-.45-.57-.12-.12-.23-.12-.34-.12h-.1l-.13-.1c-.1-.1-.22-.22-.33-.22-.23-.12-.45 0-.68-.12-.22 0-.45 0-.56.23-.22.1-.34.2-.56.2-.1 0 0 .13 0 .24 0 .1-.23.22-.1.22h.2c.12 0 .12.1.12.1.12.13.23.24.23.35 0 0-.1.12 0 .23.1.12.1.23.1.34 0 .1.12 0 .12 0 .23.1.23.34.12.45v.34c.1.22.1.44.2.56l.12-.12c.12 0 .12-.1.23-.1.22-.23.45.22.56.33.12.22 0 .45.12.67.1.23.23.34.34.45 0 0 0 .1.1.22l.12.12s0-.13.12-.13h.1c.23.23.23.68.57.68 0 0 0 .1.1.1.13 0 .13-.1.24 0 0 .12.12.23.12.23h.34c.1 0 .1.1.22.23l.1.12c.24.22.35.56.58.78.1.12.22.23.33.12v-.12c.1 0 .22-.1.22-.22l.33-.34c.12-.1.23-.1.34-.22.33 0 .22-.23.22-.23"/><path d="M31.12 20.13h.1"/><path d="M30.9 20.8c0 .12.1.12.22.12.1.1.1.22.23.22.1.12.1-.1.1-.22h.12c.1-.1 0-.34-.1-.45-.12-.1-.12-.22-.35-.22-.1 0-.1 0-.22.1-.12.12 0 .23 0 .34v.1"/><path d="M31.68 21.26c-.1.22 0 .44 0 .67 0 .1-.22.1-.22.22 0 0-.1.1 0 .23 0 .1.22.1.34.22.22.1.56.34.67.67.1.12.1.23.1.34.13.12.24.12.24.23 0 .12.12.12.12 0 .1-.1.1-.33 0-.44-.1-.13-.1-.13-.1-.24 0-.34-.12-.56-.24-.9l-.33-.33v-.1c0-.13.1-.13.1-.24 0-.12-.1-.23-.22-.34h-.1.1c-.22-.12-.33-.12-.45 0"/><path d="M33.37 22.82v-.22c0-.22-.23-.22-.34-.22h-.1v.22c.2.34.2.67.33 1.12 0 .1.33 0 .33-.1v-.23c0-.13-.12-.13-.12-.24 0-.1-.1-.22-.1-.34"/><path d="M32.92 21.82c-.1.1 0 .22 0 .33.1 0 .1 0 .1-.1-.1 0 0-.12-.1-.23"/><path d="M32.92 21.6c0-.12 0-.12-.1-.12 0 .1-.12.1-.24.1-.1.12 0 .12.12.24.22 0 .33-.12.22-.23"/><path d="M32.36 21.03c.1.1 0 .23.1.23.12 0 .24.1.35 0 .12 0 0-.12-.1-.12v-.1h-.12c-.1-.12.12-.12 0-.23v-.1h-.1v.1c-.12.12-.23.23-.12.23"/><path d="M32.25 20.36c-.12 0-.23 0-.23-.1h-.1s-.12.1 0 .1c.1 0 .1.1.1.1 0 .12.1 0 .1.12 0 .1.13.1.13 0v-.1s0-.12 0 0c0 0 .1-.12 0-.12"/><path d="M24.27 25.52c.1-.12.1-.12 0 0 .1-.12 0-.23 0-.23s-.1 0-.1.1c.1 0 .1 0 .1.12"/><path d="M33.03 24.06c-.1 0-.33 0-.45.1-.22.12-.33.46-.45.68-.1.1-.22.23-.45.23 0 0-.1 0-.1-.12v-.22l.1-.1c.12-.12 0-.24 0-.35-.1-.22-.33-.45-.56-.33-.22 0-.34.33-.56.56-.1-.1-.22-.22-.22-.33v-.1c.1 0 .22.2.22.1.1-.1 0-.22-.1-.22-.12 0-.12-.12-.24-.12-.1 0-.1-.1-.22-.22 0-.1 0-.33-.1-.33-.13 0-.24 0-.35-.1h-.23v-.12c.12 0 .34 0 .23-.23 0-.1-.1-.1-.23-.1h-.1v.33c-.12.1-.23.1-.35.1h-.1c-.12 0-.23-.1-.34-.1-.12.1-.12.22-.23.22-.1 0-.1 0-.22.12-.12 0-.12.2 0 .32v.1c-.12 0-.12-.1-.12-.1 0-.1-.1-.22-.1-.33 0-.13.1-.24.22-.35v-.23c-.12-.1-.12-.1-.23-.1-.22.1-.34.44-.56.33-.12 0-.24-.23-.35-.23-.1 0-.1-.1-.22 0-.1.12-.34.23-.56.34-.12.1-.34.23-.34.45-.1.23-.45.35-.68.12-.1-.1-.22-.22-.33-.22-.1 0-.23.22-.34.22-.1 0-.1 0-.22-.1v-.12c.22-.1.45-.23.67-.34.1 0 .1-.1.1-.22v-.22c-.32 0-.55.22-.66.44 0 0 0 .1-.1.1-.24 0-.35.13-.58 0l-.12-.2c-.1.1-.1.2-.22.2l-.12.13c-.1.1.12.32 0 .43 0 .12-.22.12-.33.12v.22c0 .1.12 0 .12.1.1.12.1.35.22.35.23.1.34 0 .57.1.12 0 .23.12.34.23 0 .12.12.12.12.23 0 0 0 .1.1.1h.23c.1 0 0 .12.1.24 0 .1 0 .22.12.44 0 0 0 .23-.1.23 0 0-.13 0-.13.1v.34h.1c.12.1.12.22.23.33l.1.12c-.1 0-.1.1-.1.1s.1.1.22 0c.12 0 .12-.1.23-.1 0 0 .1 0 .1-.13 0 0 .12.12.12.23-.1.1-.33 0-.45.1-.1 0-.1 0-.22.12 0 0 0 .1.1.1.24.13.12.46-.1.7v.2h-.1c-.24 0-.57-.1-.8 0-.1 0-.1.12-.1.23-.12 0-.12.12-.12.12V29c-.22.22-.22.55-.33.78 0 .1.1.1.1.1.12 0 .12-.1.24-.1s.12.22.12.22c0 .1.22.1.22 0s0-.22.12-.34c0-.1-.12-.22-.12-.33 0-.1 0-.23.12-.23 0 0 .1 0 .1.12v.44s.12.12 0 .23c0 0 0 .1-.1.1v.22c-.12.12-.12.12-.12.23-.22 0-.45-.1-.33-.34-.1 0-.1 0-.22.12v.34c-.1.1-.1.22-.22.34v.1c-.12.12-.23.23-.34.23-.1.12-.22 0-.22.12 0 .1.1.22.1.33 0 .1 0 .1-.1.23h-.45c0 .12 0 .23-.12.34-.1.1 0 .23.12.23.1.1.1.22.22.22.1 0 .1.1.23.1.1 0 .22-.1.22-.22 0-.1.1 0 .22 0h.12c.1-.1 0-.23 0-.23l.45-.44c.12 0 .12-.1.23-.1.1 0 .1.1.23.1.1 0 .1.12.22.12h.1c.13 0 .24.22.35.22 0-.1 0-.22-.1-.33-.12-.1-.24-.22-.35-.22v-.1c.1.1.1.1.23.1.12.1.12.23.23.34.1 0 .1.1.22.1s.23 0 .34-.1c0-.1 0-.1-.12-.1-.1-.13 0-.13.1-.24.12-.1 0-.22 0-.33v-.12c.12-.1 0-.22 0-.45 0 .12.12.12.24.12.1 0 .22-.12.22-.23.1-.1.34 0 .34.1 0 .13 0 .24-.1.24-.24 0-.46.12-.58.23l-.1.12c-.12.1-.12.1-.12.22l-.1.1c.1 0 .1.12.1.12.1 0 .22 0 .34-.12v-.22c.1 0 .1-.1.22-.1.23 0 .34.2.23.32h-.12c-.1.1-.22.34-.33.34-.23.1-.57.1-.8.22-.1.1-.1.23-.2.23-.13 0-.24.1-.35 0 0 .1-.23 0-.34 0 0 0 0-.12-.1-.23h-.12v-.1h-.9c-.1 0-.1.1-.1.1l-.12.1c-.1.13-.22.13-.33.13-.12 0-.23 0-.34.1-.22 0-.33.23-.44.34-.1.13-.23.13-.34.13v.1c-.22 0-.33.35-.45.57v.22c-.1.12-.1.34-.33.45v.1c.1.24.33.35.56.58 0 .1.1.1.1.1.12.12.12.23.23.46.12.23.34.23.57.23.1 0 .22.1.22.1.23 0 .56.12.8 0 .32.12.77 0 1.1.12.12 0 .12.12.12.23.12.1.23.33.34.45.1.1.34.1.45.1 0 0 0 .12.1.23 0 .12 0 .12.12.23.12.1.12.1.12.2 0 .12-.12.24-.12.46v.22c.23.23.45.45.68.56 0 0 .1 0 0 .12.1 0 .1.1.22.22 0 .1 0 .1.12.23.1.12.22.23.33.34.12.1.34.1.45.1 0 0 .1 0 .1.13.13 0 .35.1.46 0 .13-.12.13-.23.24-.23.1-.1.34-.1.45-.1 0 0 .1 0 .1-.12 0-.1.1-.1.1-.23.13 0 .24-.12.35-.12.22-.1.34-.34.56-.45.24-.1.46-.1.57-.22.12-.22 0-.44 0-.66 0-.12.12-.23.12-.34v-.56c0-.1-.13-.23-.13-.34 0-.1.12-.1.23-.1.1-.12.1-.35.22-.46 0 0 .12 0 .12-.1.1 0 0-.12 0-.23-.12 0-.12-.1-.12-.1-.1-.23-.33-.45-.56-.57-.1 0-.1-.1-.1-.1v-.12c-.12 0 0-.1-.12-.1h.1c.12-.12.12-.34.23-.45 0 0 .12 0 .12-.1v-.35c-.13-.1 0-.34 0-.45 0-.34 0-.56-.13-.9 0-.1-.1-.1-.22-.1 0 0 0 .1-.1.1 0 0 0 .12-.13.23 0 .1-.22.1-.22.22 0 .1 0 .1-.1.23l-.13.1c.45-.33.34-.33.34-.22h-.33c-.67-.2-1.23-.43-1.8-.55h.34c.13 0 0-.1 0-.1.13 0 .24.1.35.22.23.1.56.1.8.22.2 0 .32.2.55.2.22 0 .34-.1.45-.1v-.1c.1-.12.22-.23.22-.35v-.33l.12-.1v-.46c.1 0 .1-.1.1-.1V31c0-.22 0-.44-.1-.55 0-.1-.13-.1-.24-.1 0 0 0 .1-.1.1-.12 0-.24 0-.24.1-.1 0-.1.12-.1.12-.12.1-.23.23-.46.23-.1 0-.22 0-.22-.12-.1-.22.22-.22.45-.22l.1-.1c0-.12.1-.24.22-.24h.23c.1 0 .1-.1.22-.1 0 0 0-.12.12-.23 0-.12.1-.12.2-.24.12-.22.12-.44.24-.67.1-.12 0 .1.1.22.12.1.23.1.34 0 .12-.12 0-.23.12-.23h.1c.12 0 .12.1.23.1 0 0 .12-.1.23-.1h.34c.22-.12.67 0 .67-.23 0-.34-.34-.68-.67-.8-.23-.1-.12-.44-.34-.66-.1 0 0-.1-.1-.2l-.13-.13-.1-.1v-.57c0-.1.1-.1.22-.1.1-.12.22-.12.22-.24v-.44l.1-.12c.24 0 .58.12.8-.1.1 0 .1-.12.1-.23.24-.23.46-.45.46-.9-.1.1 0 .1 0-.1.1.1.1 0 0 0m-5.05 6.04s0 .12 0 0c-.12.12-.12.12-.23 0 0-.1-.1-.1-.1-.2-.12 0-.12 0-.12.1h-.23c0-.1-.1-.1-.1-.22-.12-.12 0-.23.1-.23s.1 0 .1.1v.13c.13.1.13 0 .24 0h.34c0 .1.1.22 0 .33"/><path d="M17.53 49.62c1.46-2.13 5.84-4.37 10.1-4.37 4.28 0 9 2.46 10.8 1.12 0 0-1.9 1.57-5.73 1.57-3.83 0-5.3-1.9-7.87-1.9-2.7 0-5.4 2.12-6.63 3.92l-.67-.34z"/><path d="M31.12 44.9s1.24-.77 1.9-2.12c.7-1.34 2.37-3.6 4.17-4.93 0 0-1.92 6.16-3.94 6.4 0 0-.34.2.22.1s3.15-1 4.05-1.23c.9-.1 3.14-.68 3.7-1.24.57-.44.9-.44.9-.44s-2.47 4.14-6.96 4.14c0 0-2.25-.1-4.05-.67"/><path d="M36.4 42.78s.45-.67.56-1.9c.12-1.24.9-4.04 3.04-7.07 0 0 .34 4.83-2.14 7.86 0 0-.1.45.12.1.33-.32 1.8-2.12 5.16-4.36 0 0 1.7-1.46 1.8-1.9 0-.12-1.35 6.83-8.54 7.28"/><path d="M40.56 38.18s.22-.78.22-1.45c0-.68-.33-2.92-.33-3.93 0-1 .1-2.9.9-4.15 0 0 0 1.13.22 1.57.23.45.56 2.47.56 2.8 0 .23-.1 1.9-.45 2.8 0 0 .34-.2.68-.9.33-.66 1.23-1.9 2.47-3.13 1.24-1.24 1.57-2.36 1.57-2.36s.34 2.24-1.35 4.6c-1.68 2.35-2.36 2-3.25 2.9 0 0-1.13 1.24-1.24 1.24"/><path d="M43.14 32.7s0-1.35-.33-1.8c-.22-.45-1.8-3.14-1.45-6.62 0 0 .22-.22.67 1.12.45 1.35 1.12 1.8 1.35 3.14.22 1.35.22 1.9.22 1.9s.1.23.1 0c0-.1.12-2 .9-3.58.8-1.68 1.8-3.25 1.7-4.37 0 0 .44 0 .33 1.78.1 1.8-.34 4.94-3.5 8.4"/><path d="M44.04 27.3s-.56-1.22-.9-1.67c-.33-.45-3.03-4.15-3.25-5.94 0 0 .2-.13.44.32.22.45 1.46 1.68 1.68 1.9.23.23 1.57 1.58 1.7 3.15 0 0 .1.1-.13-2.36-.23-2.45.78-4.14-.12-5.93 0 0 1.24.22 1.9 5.38 0 0 0 1.8-1 4.04.1-.12-.22 1.1-.34 1.1"/><path d="M43.03 21.6s-1-1.02-1.8-1.47c-.78-.44-3.25-2.9-3.7-4.82 0 0 .1-.2.9.8.56.78 1.23.45 3.03 2.7 0 0 .22.55.34.44.1 0-.12-.56-.12-.56s-.1-1.35-.1-1.8c0-.45-.8-3.14-1.02-3.47 0 0 2.47 1.35 2.8 5.28-.1 0-.22 2.8-.33 2.9"/><path d="M41 17.44s.12-3.36-4.26-5.15c0 0 1.57 3.13 2.7 3.9 1.12.8 1.57 1.24 1.57 1.24"/><path d="M29.55 49.62c-1.46-2.13-5.84-4.37-10.1-4.37-4.28 0-9 2.46-10.8 1.12 0 0 1.9 1.57 5.73 1.57 3.82 0 5.28-1.9 7.87-1.9 2.58 0 5.4 2.12 6.62 3.92l.68-.34z"/><path d="M15.95 44.9s-1.23-.77-1.9-2.12c-.68-1.34-2.37-3.6-4.16-4.93 0 0 1.9 6.16 3.92 6.4 0 0 .34.2-.23.1-.57-.1-3.15-1-4.05-1.23-.9-.1-3.15-.68-3.7-1.24-.46-.44-.9-.44-.9-.44s2.47 4.14 6.96 4.14c0 0 2.26-.1 4.05-.67"/><path d="M10.67 42.78s-.45-.67-.56-1.9c-.1-1.24-.9-4.04-3.02-7.07 0 0-.34 4.83 2.13 7.86 0 0 .13.45-.1.1-.34-.32-1.8-2.12-5.17-4.36 0 0-1.68-1.46-1.8-1.9 0-.12 1.35 6.83 8.54 7.28"/><path d="M6.52 38.18s-.23-.78-.23-1.45c0-.68.33-2.92.33-3.93 0-1-.1-2.9-.9-4.15 0 0 0 1.13-.22 1.57-.22.45-.56 2.47-.56 2.8 0 .23.12 1.9.45 2.8 0 0-.34-.2-.68-.9-.34-.66-1.24-1.9-2.47-3.13C1 30.55.67 29.43.67 29.43s-.33 2.24 1.35 4.6c1.7 2.35 2.36 2 3.26 2.9.1 0 1.12 1.24 1.24 1.24"/><path d="M3.93 32.7s.1-1.35.34-1.8c.22-.45 1.8-3.14 1.46-6.62 0 0-.22-.22-.67 1.12-.45 1.35-1.13 1.8-1.35 3.14-.33 1.35-.33 1.9-.33 1.9s-.1.23-.1 0c0-.1-.12-2-.9-3.58-.8-1.68-1.8-3.25-1.7-4.37 0 0-.45 0-.33 1.78 0 1.8.45 4.94 3.6 8.4"/><path d="M3.03 27.3s.57-1.22.9-1.67c.34-.45 3.04-4.15 3.26-5.94 0 0-.23-.13-.46.32-.22.45-1.46 1.68-1.68 1.9-.23.23-1.58 1.58-1.7 3.15 0 0-.1.1.12-2.36.23-2.45-.78-4.14.12-5.93 0 0-1.24.22-1.9 5.38 0 0 0 1.8 1 4.04-.12-.12.22 1.1.33 1.1"/><path d="M4.04 21.6s1.02-1.02 1.8-1.47c.8-.44 3.26-2.9 3.7-4.82 0 0-.1-.2-.9.8-.55.78-1.22.45-3.02 2.7 0 0-.23.55-.34.44-.1 0 .1-.56.1-.56s.35-1.46.35-1.9c0-.46.8-3.15 1-3.48 0 0-2.46 1.34-2.8 5.26-.1.12 0 2.92.1 3.03"/><path d="M6.07 17.44s-.12-3.36 4.27-5.15c0 0-1.58 3.13-2.7 3.9-1.12.8-1.57 1.24-1.57 1.24"/></g></svg>