<svg xmlns="http://www.w3.org/2000/svg" width="40" height="40"><g fill="#026CB6" fill-rule="nonzero"><path d="M17.1 17.82c0-1.67 1.37-3.05 3.02-3.05s3.02 1.38 3.02 3.05c0 1.66-1.37 3.05-3.02 3.05v-.37c1.46 0 2.65-1.2 2.65-2.68 0-1.48-1.2-2.68-2.65-2.68-1.46 0-2.65 1.2-2.65 2.68 0 1.48 1.2 2.68 2.65 2.68v.38c-1.65 0-3.02-1.4-3.02-3.06"/><path d="M14.72 17.82c0-3.05 2.47-5.55 5.5-5.55 3 0 5.48 2.5 5.48 5.55s-2.47 5.55-5.5 5.55V23c2.85 0 5.14-2.32 5.14-5.18 0-2.87-2.3-5.18-5.13-5.18-2.82 0-5.1 2.3-5.1 5.18 0 2.86 2.28 5.18 5.1 5.18v.38c-3 0-5.48-2.5-5.48-5.56"/><path d="M12.07 17.82c0-4.53 3.66-8.23 8.14-8.23 4.5 0 8.15 3.7 8.15 8.22 0 4.53-3.65 8.23-8.14 8.23v-.46c4.3 0 7.7-3.53 7.8-7.78 0-4.35-3.5-7.77-7.8-7.86-4.3 0-7.67 3.5-7.76 7.86 0 4.34 3.47 7.77 7.77 7.77v.37c-4.47.08-8.13-3.62-8.13-8.15"/><path d="M9.5 17.82C9.5 11.9 14.28 7.1 20.2 7.1c5.87 0 10.63 4.8 10.63 10.72 0 5.92-4.76 10.73-10.62 10.73v-.37c5.68 0 10.26-4.63 10.26-10.36 0-5.74-4.58-10.36-10.25-10.36-5.66 0-10.23 4.62-10.23 10.36 0 5.73 4.57 10.36 10.24 10.36v.38c-5.93 0-10.7-4.82-10.7-10.74"/><path d="M6.76 17.82c0-7.5 6.04-13.6 13.45-13.6 7.42 0 13.46 6.1 13.46 13.6s-6.04 13.6-13.45 13.6v-.38c7.24 0 13.1-5.92 13.1-13.22 0-7.3-5.86-13.23-13.1-13.23C13 4.6 7.14 10.5 7.14 17.8c0 7.3 5.85 13.22 13.08 13.22v.37c-7.5 0-13.44-6.1-13.44-13.58"/><path d="M19.94 4.4h.37v10.55h-.36z"/><path d="M10.7 8.48l.27-.28 7.32 7.4-.28.28"/><path d="M6.95 17.63h10.43V18H6.95z"/><path d="M10.7 27.16l7.32-7.4.27.28-7.33 7.4"/><path d="M19.94 20.68h.37v10.54h-.36z"/><path d="M22.02 19.94l.26-.26 7.37 7.4-.26.27z"/><path d="M23.05 17.63h10.43V18H23.05z"/><path d="M22.04 15.6l7.4-7.4.2.28-7.32 7.4"/><path d="M18.1 18.65c.1 0 .1.1.1.2h.1c.17-.2.27-.48.36-.66 0 0 .1 0 .1-.1s-.2-.2-.2-.28c-.1.18-.27 0-.36.1V18h.1v.2c-.1-.1-.2-.1-.28-.1.1 0 0 0 0 .1-.2 0-.37 0-.46.08-.1 0-.1 0-.18-.1-.1.1-.1.2-.2.2l-.08-.1c.1-.1.18-.1.18-.18v-.28c.1-.1.1-.2.2-.2.08 0 .26.1.35 0l.1.1v.1c-.1.1-.2.1-.2.18 0 .1 0 .1.1.1s.1-.1.2-.1c0-.1.08 0 .08 0h.28c.1 0 .1-.27 0-.37v-.1-.08c0-.1.2-.1.2 0v.1s0 .08.08 0v-.2s.1.1.18.1h.18c.1 0 .1-.1 0-.2h-.1c-.08.1-.17.1-.17.1-.1 0-.1-.1-.18-.1-.1 0-.2.1-.2 0-.08 0-.08-.08-.08-.17l.08-.1c.1 0 .2 0 .28-.1 0-.08.1-.17.1-.17h.08c.1 0 .18 0 .27-.08.1 0 .2-.1.3-.2.08 0 .08-.08.17-.08 0 0 0-.1.1-.1v-.46c0-.1.1-.1.1-.1h-.1s-.1-.08 0-.08c0 0 .18 0 .18-.1.1-.1 0-.27-.1-.27-.1-.1-.18 0-.27 0 0 0 0 .1-.1.1-.08 0-.17-.1-.08-.2v-.1h-.1l-.27.3v.08c0 .1 0 .2-.1.2h-.08c0 .1.18.1.1.18-.1.1-.2.1-.38.2-.27.08-.54 0-.82 0h-.46c-.1 0-.1.08-.2.17v-.18c0-.1-.08 0-.08-.1-.18-.36-.64-.27-1-.27-.1 0-.1.1-.1.1-.1.08-.18 0-.27 0l-.1.08c-.1 0-.18-.1-.27 0-.1.1-.1.1-.18.1v.1h-.1c-.1 0-.27 0-.27.08 0 .1 0 .28-.1.28-.08 0-.26 0-.36.1-.1 0-.1.08-.18.08-.2.37-.37.65-.37 1.1v.1c-.2.38-.28.56-.55 1.02-.1.2-.2.56 0 .65.1.08 0 .18-.2.18-.17 0-.35 0-.35-.2 0-.08-.2-.08-.28-.08h-.36c-.2 0-.2.28-.3.37-.08.1-.26.1-.26.18v.2s-.1 0-.1.08v.1c0 .18-.08.27 0 .45v.1c0 .18 0 .27-.08.46-.1.18-.28.18-.46.18h-.93c-.08 0-.08-.1-.17-.1-.1-.08-.1-.17-.1-.17-.08-.1-.27 0-.36.1.1 0 0 .08 0 .08-.1 0-.18.1-.27.2-.1.08-.18-.2-.18-.3 0-.08-.1-.08-.2-.08v.1h-.1c-.08.08.1.08.1.08v.1h-.1c0 .1-.08.1-.08.1-.1 0-.1.08-.1 0v-.2h-.08c0 .1 0 .1-.1.1v.1h.2c.08.08.08.17.08.26 0 .1 0 .18-.1.1-.08-.1 0-.2 0-.3h-.08c.1.2-.1.3.1.47.08.1-.2.2-.1.2 0 0 .1.08.18.08v-.1s.1-.1.1 0v.1h-.1v.38c0 .08.18 0 .18.08 0 .1-.1.1 0 .2 0 0 .1 0 .1.1v.08s.1 0 .1.1c.08 0 .08 0 .08-.1.1 0 .1-.1.1-.18 0 0 0-.1-.1 0v-.2c0-.08-.1-.08-.1-.17.1 0 .1 0 .2-.1 0 0 .08 0 .08.1v.1c.1 0 .1.08.1.08.08 0 .08.1.17.2h.28v-.1l.1.1c0 .1 0 .18.1.27h.08l.1.1h.1c.08 0 .08.1.08.1.1 0 .18 0 .18.08.1.1.1.2.18.37 0 .1.1.1.1.1s0 .1.1.1c.08.08.17.08.26.08 0 0 .1-.1.18-.1h.1c.1.2.1.38.27.38.1 0 .1.1.18.18h.2s0 .1.1.1c.08.1.17.1.17.18v.1c.1 0 .18-.1.18 0 .1.08.2.08.2.18h.08v-.1c0-.1.1 0 .18-.1.1 0 .1-.17.1-.17.1 0 .18.1.28.18h.1c.08.1.08.28.17.28.18 0 .18.1.37.2.1 0 .18.1.27.1h.08c.1 0 .1 0 .2-.1.08-.1.26-.1.35-.2l.1-.08c.18-.1.45.1.63 0 .1 0 .1 0 .2-.1.08-.1.17-.27.08-.37-.1-.18-.18-.46-.28-.64l-.27-.27H15c-.1 0-.1-.1-.1-.2 0 0-.1 0-.1-.08v-.28c-.08 0-.17-.1-.35-.1 0 0-.1 0-.1-.08V23c.1-.1.2-.1.28-.1v-.27s0-.1-.1-.1c0-.1.1-.18 0-.27-.08-.1-.17-.2-.17-.28 0 0-.1 0-.1-.1v-.46c0-.1-.1-.1 0-.18l.1-.1c.1 0 .1-.1.1-.18-.1-.1-.2 0-.2 0v-.28l-.1-.1v-.17s0-.08-.08 0v-.18c0-.1-.1-.18-.18-.1 0 0-.1.1-.18 0v-.08s.1 0 .1-.1c.08-.1 0-.18 0-.18-.1-.1-.2-.18-.1-.28-.1 0-.28 0-.28-.18 0-.2 0-.28-.1-.37v-.28s0-.1.1-.1c.2 0 .37 0 .37-.08.1-.1-.08-.28 0-.28.2-.1.37 0 .56-.2.1 0 .1-.1 0-.18 0-.1-.1-.2-.1-.2-.1-.08-.18 0-.27-.17v-.2c0-.08.08-.08.17-.17.2-.1.28 0 .46.1l.1.08v.1c0 .18.08.37 0 .55 0 .1-.1.1-.1.2h.1c0 .1.08.27 0 .37-.1.1-.1 0-.28 0-.1 0-.1 0-.1.1l.1.08c.36.1.46.1.82.2.1 0 .1.08.2.08h.27c0 .1.08.1.08.1.1.08.1.27.18.27.1-.1.2 0 .2 0-.1.1 0 .18 0 .28.08.1.17.1.26.18.1.1.18.1.18 0s-.1-.18 0-.28c.1.2 0 .37.1.56.1.1.1.18.18.18.1 0 .1-.1.1-.18v-.1c0-.1 0-.1.08-.18 0-.1.1-.18.1-.28v-.1c0-.08.18-.17.27-.17v-.1c.1 0 0-.17.1-.17 0-.1.08-.1.08-.2 0 0 .1-.08 0-.08.46.1.46 0 .46 0"/><path d="M14.27 18.47h-.1v.1l.1.08v.28c0 .1.1.18.18.1.1-.1.18-.3.1-.38-.2 0-.1-.1-.28-.18"/><path d="M14.08 19.3c.1.18.2.1.28.1v-.1c-.1-.1-.1-.1-.28 0 .1-.1 0-.1 0-.1v.1"/><path d="M14.36 19.67c0-.2-.1-.2-.2-.1-.08.1 0 .28.1.38 0 0 0 .1.1.1 0 .08.1 0 .18 0 0-.1 0-.1.1-.1-.1-.1-.2-.28-.28-.28"/><path d="M14.08 18.93c0-.1-.1-.1 0 0-.1 0-.1 0-.1.1 0 .08 0 .18.1.18 0 0 .1 0 .1-.1-.1-.08-.1-.08-.1-.17"/><path d="M14.45 19.48l.1-.1h.08v-.08c-.1 0-.1.1-.18.1-.1 0 0 .08 0 .08"/><path d="M14.36 20.32c0 .1 0 .1.1.1h.08v-.1h-.18c0-.1 0 0 0 0"/><path d="M14.54 20.96c0-.1.1-.1 0-.18h-.1c0 .1.1.18.1.18"/><path d="M8.78 23.27v.1h.18c-.1 0-.1-.2-.18-.1"/><path d="M9.33 23.92c-.1.1.1.2.18.2v-.2s-.08-.1-.17 0"/><path d="M9.6 24.3c0 .18.1.27.18.27.1-.2 0-.28-.18-.28"/><path d="M18.84 19.48c.18-.1.37-.1.55-.1.36 0 .36-.54.54-.82 0-.1 0-.28-.1-.37-.08-.2-.54 0-.63-.2-.1-.1.28.1.28-.1 0-.08 0-.08-.1-.17h-.17c-.18.18-.27.46-.36.74-.27.37-.64.64-.82 1.1 0 .1 0 .1.1.2.26.08.54-.2.72-.3"/><path d="M20.5 18.56c-.1 0-.1 0-.2.1v.18h.1c0-.1 0-.1-.1-.1.2-.1.2-.18.2-.18"/><path d="M19.3 19.95c.1.18.46.1.46 0s-.28-.2-.37-.2c-.2 0 .08.1-.1.2"/><path d="M19.76 21.15c.1-.1.1-.2.1-.28l-.3.28h.2"/><path d="M21.4 18.65v-.1h-.18c-.1 0-.1-.08-.1-.18 0-.1-.08-.18-.08-.27-.1 0-.1.18-.1.18.2.2.28.46.46.37"/><path d="M19.2 17.54c-.1-.1-.1 0 0 0-.1.1 0 .1 0 0"/><path d="M8.4 21.05s0-.1-.08-.1h-.1v.1s.1.1.2 0"/><path d="M9.05 21.05c.1 0 .18-.1.1-.18-.1-.1-.28 0-.2.1-.08.08 0 .18.1.08"/><path d="M19.48 14.58c0-.1.1-.1.1-.18h-.1c-.1 0-.1.1 0 .18-.1-.1-.1-.1 0 0-.1 0 0 0 0 0"/><path d="M19.76 14.5s.1-.1 0-.1h-.1s0 .1.1.1"/><path d="M18.75 16.9c0 .1.18.27.27.18.1-.1 0-.2 0-.2-.1-.08-.18-.08-.27 0"/><path d="M19.02 17.63v-.1h-.18-.1s0 .1.1.1c0-.1.1 0 .18 0"/><path d="M18.75 17.82c-.1 0 0 .1 0 .18.1 0 .1 0 .18-.1 0-.08.1-.17 0-.17s-.18 0-.18.1"/><path d="M18.57 17.54c0 .1-.1.2 0 .28 0 .1.1 0 .1 0 0-.1 0-.2.08-.2h-.1v-.08h-.08"/><path d="M25.52 24.1c.1 0 0-.1 0 0"/><path d="M20.2 20.5c0 .1 0 0 0 0l-.08-.1c0-.08-.1.1-.18 0 .1.1 0 .1-.1.2 0 .08.1.08.1.08 0 .1-.1.1 0 .2l-.1.08s-.08.1 0 .1c.1.1.2-.1.28-.1h.1c.08 0 .08-.1.18-.18h-.2s-.08 0 0-.28c0 .1 0 0 0 0"/><path d="M20.76 22.26c0 .1.1.1 0 0 .1 0 .1-.1.1-.2h-.1v.2"/><path d="M20.85 22.07c.1 0 0-.1 0-.1h-.1s0 .1.1.1"/><path d="M21.4 22.35s0-.1 0 0c-.1 0-.1-.1-.18 0h-.1v.1c.2-.1.2-.1.28-.1"/><path d="M22.32 22.26v-.1c-.1 0-.2.1-.28 0v.1h-.1c.2.1.3 0 .38 0"/><path d="M22.68 21.9c0 .17.2.08.2 0 .08-.1 0-.1-.2 0l.1-.1c0 .1-.1.1-.1.1"/><path d="M27.07 18.93c0 .1.1.1.2.1.08 0 .17 0 .26-.1 0-.2-.1-.28-.27-.28-.2.1-.2.2-.2.28"/><path d="M27.07 23.64h-.1c-.08.47-.54 1.1 0 1.4.2.18.47-.1.56-.3 0-.26 0-.9-.46-1.1"/><path d="M25.7 21.6c-.1 0-.1.2 0 .2 0 0 .1 0 .1-.1v-.1h-.1"/><path d="M26.07 26.33v.18s.18-.08 0-.17"/><path d="M28.17 15.5h-.1v.2c-.17.36-.63.82-.36 1.3.1-.1.2-.2.3-.38.08-.28.26-.56.35-.93 0 0-.1-.2-.18-.2"/><path d="M27.35 17.17c0 .1 0 .1.1.1.08 0 .08-.1 0-.1 0-.1 0-.1-.1 0"/><path d="M22.68 14.3c-.1-.18-.18 0-.27 0l-.08-.1h-.1c-.1 0 0 .2.1.2s.1-.1.1 0c.08.1 0 .27.17.18.08 0 .17-.1.27-.1s.1-.08.1-.18c.08 0 .17-.1.26 0 0 0 0 .1.1.1 0 .1.08.1.18.1.1 0 .2 0 .28-.1.1-.1.1-.2 0-.28h-.18c-.1 0-.1-.1-.2-.1-.35-.1-.53.2-.72.28"/><path d="M23.5 14.5s-.1 0 0 0h-.1.1z"/><path d="M21.77 14.5h.27c0-.2-.18-.1-.27-.1.1-.1.1 0 0 .1 0-.1 0-.1 0 0-.1-.1 0 0 0 0"/><path d="M22.13 15.04c.1-.1.28-.18.37-.27v-.1c0-.1-.1-.1-.18-.18 0 .08-.1.08-.1.08-.1.1-.18.1-.18.2v.17c.1.28.1.2.1.1"/><path d="M20.76 14.12v.1c.1.08.1 0 0-.1"/><path d="M17.47 12.08c.1.1.27.1.36.1l.1-.1c-.1-.1-.2 0-.2-.1h-.08c-.1-.08-.18 0-.18.1-.1 0 0 0 0 0"/><path d="M25.8 13.56c0 .1-.1 0-.2.1v.1c.1.08.2 0 .28 0 0 0 .1-.1.1 0v.08c-.1 0-.1.1-.1.1h-.18-.1v.18c-.08.1-.36.18-.26.37.1.08.27.08.45.08 0-.18.08-.18.18-.28 0 0 0-.1-.1-.1v-.08c.1 0 .1-.1.1-.1v-.1c.1 0 .18-.08.18-.08 0-.1-.1-.18-.1-.28 0 0 0-.1.1-.1v-.08h-.1s-.08 0 0 .1c-.08 0-.18 0-.27.08 0-.18.08 0 0 0"/><path d="M24.88 14.5c0 .08.1.08.18 0h-.18"/><path d="M26.16 14.3c-.1.1.1.1.18.1 0-.1-.1-.1-.18-.1"/><path d="M26.53 13.84c-.1 0-.1 0 0 0-.1 0-.1.1 0 0 0 .1 0 .1 0 0"/><path d="M24.42 10.14c.1.1.18.1.18.2v.36l.1.1v.17c0 .1.1.28.1.37.08 0 .08.1.08.1 0 .1 0 .1.1.18 0 .1.08 0 .17.1.1.1.2.27.28.36 0 0 .1 0 .1.1v.1c.17 0 .45.08.35.36.1-.1.2-.1.2-.2 0-.08.08-.26 0-.36 0-.1-.1-.1-.2-.18v-.2c0-.08-.1-.08-.1-.08 0-.1-.08-.28.1-.28v-.1h-.18v-.08c0-.1 0-.2-.1-.28-.08-.1-.17-.1-.26-.1-.1-.08-.1-.08-.2-.08h-.17c-.18-.2-.27-.37-.37-.56-.1-.1-.18-.1-.27 0 .1-.1.1-.1.1 0 0-.1 0-.1 0 0 0-.1 0 0 0 0"/><path d="M23.6 10.42c-.1.1 0 .18 0 .18h.36c.1 0 .1-.1.1-.1.1-.08.18 0 .36-.08 0 .1 0 .1.1.1 0-.1 0-.2-.1-.2-.1-.1-.1-.18-.18-.27h-.1c0 .18-.08.1-.27.18v0h-.18c0 .1-.1.2-.1.2"/><path d="M21.5 6.8c-.1-.17-.28-.36-.2-.64.28.1.56.1.83 0 .2-.1.46 0 .64-.1V5.9c-.27.08-.45-.2-.64-.1-.27.18-.55.18-.82.27-.17.1-.8 0-.8.37.26 0 .63 0 .8.28 0 .1.1.1.2.1"/><path d="M22.4 8.2c.1.18.28.18.37.18 0-.1 0-.1-.1-.18h-.26"/><path d="M22.13 8.66c-.1 0 0 .1.1.2 0-.1.1-.3-.1-.2"/><path d="M21.95 8.38c.1-.1 0-.18-.1-.18v.1l.1.08"/><path d="M22.77 9.4s0 .1 0 0c.1-.1.1-.18.1-.18h-.1c-.1.1 0 .18 0 .18"/><path d="M23.05 9.4v.1c.1.1.1 0 0-.1.1.1.1.1 0 0 .1 0 0 .1 0 0"/><path d="M22.96 9.68c.1-.1.1-.1 0 0l.1-.1c0-.1-.1-.1-.2 0-.1 0 .1 0 .1.1"/><path d="M23.05 9.68c0 .1.1.18.18.1 0 0 .1-.1 0-.1h-.18z"/><path d="M23.5 9.86c0-.1-.1-.18-.1-.18s-.08.1 0 .1c0 .08 0 .08.1.08"/><path d="M23.6 10.14h.1v-.18h-.2v.1l.1.08"/><path d="M23.4 10.33c.1-.1.1-.1 0-.2h-.08s0 .1-.1.1c.1.1.1.1.2.1"/><path d="M23.14 5.7c-.1-.1-.1-.1-.18-.1.1.1.1.2.18.1"/><path d="M26.25 8c.1.1.18 0 .18.1.1.1.1.2.2.2.08 0 .08 0 .08-.1 0-.2 0-.37-.17-.37h-.46c-.1 0-.1.1-.1.18.1-.08.2-.08.28 0"/><path d="M30 12.82c-.1-.1-.1-.27-.18-.37-.1-.1-.18-.1-.28-.18v-.2l-.1-.08c-.08-.2-.08-.3-.26-.3 0-.17-.1-.17-.28-.26v-.1c0-.1-.1-.1-.1-.1h-.08c-.1-.08-.18-.17-.18-.27s-.2-.18-.28-.27l-.1-.1c-.08 0-.17 0-.17-.1 0-.17-.2-.27-.3-.36-.17-.1 0-.37-.08-.65 0-.1-.1-.1-.18-.1 0 0-.1 0-.1-.1-.08-.08 0-.27-.08-.36-.1-.2-.28-.28-.37-.46-.1-.1-.2-.1-.28-.1h-.1l-.1-.1c-.08-.08-.17-.17-.26-.17-.18-.1-.37 0-.55-.1-.17 0-.36 0-.45.2-.18.1-.27.18-.45.18-.1 0 0 .1 0 .2 0 .08-.2.17-.1.17h.2c.08 0 .08.1.08.1.1.1.18.18.18.27 0 0-.1.1 0 .2.1.08.1.17.1.27 0 .08.08 0 .08 0 .2.08.2.26.1.36v.27c.1.2.1.37.18.47l.1-.1c.08 0 .08-.1.17-.1.18-.17.36.2.45.3.1.17 0 .36.1.54.08.2.18.28.27.37 0 0 0 .1.1.2l.08.1s0-.1.1-.1h.08c.2.18.2.55.46.55 0 0 0 .1.1.1.08 0 .08-.1.17 0 0 .1.1.18.1.18h.28c.1 0 .1.1.18.2l.1.08c.18.2.27.47.45.66.1.1.2.18.3.1v-.1c.08 0 .17-.1.17-.2.1-.08.18-.17.27-.27.1-.1.2-.1.28-.2.27 0 .18-.18.18-.18"/><path d="M26.34 12.36h.1"/><path d="M26.16 12.92c0 .1.1.1.18.1.1.08.1.17.2.17.08.1.08-.1.08-.2h.1c.08-.08 0-.27-.1-.36-.1-.1-.1-.2-.28-.2-.1 0-.1 0-.18.1-.1.1 0 .2 0 .28v.1"/><path d="M26.8 13.3c-.1.17 0 .36 0 .54 0 .1-.18.1-.18.2 0 0-.1.08 0 .17 0 .1.18.1.27.2.17.1.45.27.54.55.1.1.1.2.1.28.08.1.17.1.17.18 0 .1.1.1.1 0 .1-.08.1-.26 0-.36-.1-.1-.1-.1-.1-.18 0-.28-.08-.46-.17-.74l-.27-.28v-.1c0-.08.1-.08.1-.18 0-.1-.1-.18-.2-.27h-.1.1c-.18-.1-.27-.1-.36 0"/><path d="M28.17 14.58v-.18c0-.2-.18-.2-.27-.2h-.1v.2c.2.27.2.55.28.92 0 .1.27 0 .27-.1v-.18c0-.1-.1-.1-.1-.18 0-.1-.08-.2-.08-.28"/><path d="M27.8 13.75c-.1.1 0 .18 0 .28.1 0 .1 0 .1-.1-.1 0 0-.1-.1-.18"/><path d="M27.8 13.56c0-.1 0-.1-.1-.1 0 .1-.08.1-.17.1-.1.1 0 .1.1.2.18 0 .27-.1.18-.2"/><path d="M27.35 13.1c.1.1 0 .2.1.2.08 0 .17.08.26 0 .1 0 0-.1-.08-.1v-.1h-.1c-.08-.1.1-.1 0-.18v-.1h-.08v.1c-.1.1-.18.18-.1.18"/><path d="M27.26 12.55c-.1 0-.2 0-.2-.1H27s-.1.1 0 .1.1.1.1.1c0 .08.1 0 .1.08 0 .1.08.1.08 0v-.1s0-.08 0 0c0 0 .1-.08 0-.08"/><path d="M20.76 16.8c.1-.1.1-.1 0 0 .1-.1 0-.18 0-.18s-.1 0-.1.1c.1 0 .1 0 .1.08"/><path d="M27.9 15.6c-.1 0-.28 0-.37.1-.18.08-.27.36-.36.55-.1.1-.2.18-.37.18 0 0-.1 0-.1-.1v-.18l.1-.1c.1-.08 0-.17 0-.27-.1-.18-.27-.37-.46-.27-.18 0-.27.28-.46.47-.1-.1-.18-.2-.18-.28v-.1c.1 0 .18.18.18.1.1-.1 0-.2-.1-.2-.08 0-.08-.1-.17-.1-.08 0-.08-.08-.17-.17 0-.1 0-.28-.1-.28s-.18 0-.27-.1h-.18v-.08c.1 0 .27 0 .18-.2 0-.08-.1-.08-.18-.08h-.1v.28c-.08.08-.18.08-.27.08h-.08c-.1 0-.18-.1-.27-.1-.1.1-.1.2-.2.2-.08 0-.08 0-.17.08-.1 0-.1.2 0 .28v.1c-.1 0-.1-.1-.1-.1 0-.1-.08-.18-.08-.28 0-.1.1-.18.18-.27v-.2c-.1-.08-.1-.08-.18-.08-.2.08-.28.36-.46.27-.1 0-.18-.2-.27-.2-.1 0-.1-.08-.2 0-.08.1-.26.2-.44.3-.1.08-.28.17-.28.36-.1.18-.37.28-.55.1-.1-.1-.18-.2-.27-.2-.1 0-.2.2-.28.2-.1 0-.1 0-.18-.1v-.1c.18-.1.37-.18.55-.27.1 0 .1-.1.1-.2v-.18c-.28 0-.47.2-.56.38 0 0 0 .1-.1.1-.17 0-.26.08-.45 0l-.08-.2c-.1.1-.1.2-.18.2l-.1.08c-.08.1.1.28 0 .37 0 .1-.18.1-.27.1v.2c0 .08.1 0 .1.08.1.1.1.28.18.28.18.1.27 0 .45.1.1 0 .2.1.28.18 0 .1.1.1.1.18 0 0 0 .1.08.1h.18c.1 0 0 .1.1.18 0 .1 0 .2.1.37 0 0 0 .2-.1.2 0 0-.1 0-.1.08v.28h.1c.1.1.1.18.18.27l.1.1c-.1 0-.1.1-.1.1s.1.08.18 0c.1 0 .1-.1.18-.1 0 0 .1 0 .1-.1 0 0 .1.1.1.2-.1.08-.3 0-.38.08-.1 0-.1 0-.18.1 0 0 0 .1.1.1.17.08.08.36-.1.54v.2h-.1c-.18 0-.45-.1-.63 0-.1 0-.1.08-.1.17-.1 0-.1.08-.1.08v.2c-.18.17-.18.45-.27.64 0 .1.1.1.1.1.08 0 .08-.1.17-.1.1 0 .1.18.1.18 0 .1.18.1.18 0s0-.18.1-.28c0-.1-.1-.18-.1-.27 0-.1 0-.2.1-.2 0 0 .08 0 .08.1v.37s.1.1 0 .2c0 0 0 .08-.1.08v.18c-.08.1-.08.1-.08.2-.18 0-.37-.1-.28-.3-.1 0-.1 0-.18.1v.28c-.1.1-.1.2-.18.28v.1c-.1.08-.18.18-.28.18-.1.1-.18 0-.18.1 0 .08.1.17.1.27 0 .08 0 .08-.1.17h-.37c0 .1 0 .2-.08.28-.1.1 0 .18.1.18.1.1.1.2.18.2.1 0 .1.08.18.08.1 0 .18-.08.18-.17 0-.1.1 0 .2 0h.08c.1-.1 0-.2 0-.2.1-.08.27-.27.36-.36.1 0 .1-.1.2-.1.08 0 .08.1.17.1.1 0 .1.1.18.1h.1c.1 0 .18.18.27.18 0-.1 0-.2-.1-.28-.08-.1-.18-.18-.27-.18v-.1c.1.1.1.1.2.1.08.08.08.17.17.26.1 0 .1.1.18.1.1 0 .18 0 .28-.1 0-.1 0-.1-.1-.1-.1-.08 0-.08.1-.17.1-.1 0-.2 0-.3v-.08c.1-.1 0-.2 0-.37 0 .1.1.1.18.1.1 0 .18-.1.18-.2.1-.1.28 0 .28.1s0 .18-.1.18c-.18 0-.36.1-.45.2l-.1.08c-.1.1-.1.1-.1.2l-.08.1c.08 0 .08.08.08.08.1 0 .2 0 .28-.1v-.18c.1 0 .1-.1.18-.1.2 0 .28.2.2.3h-.1c-.1.08-.2.26-.28.26-.18.1-.46.1-.64.2-.1.08-.1.17-.18.17-.1 0-.2.1-.28 0 0 .1-.18 0-.27 0 0 0 0-.1-.1-.18h-.1v-.1h-.73c-.1 0-.1.1-.1.1l-.08.1c-.1.08-.2.08-.3.08-.08 0-.17 0-.26.1-.18 0-.27.18-.37.27-.1.1-.18.1-.27.1v.1c-.18 0-.27.27-.37.45v.2c-.1.08-.1.26-.27.36v.1c.1.18.27.28.46.46 0 .1.1.1.1.1.08.1.08.18.17.36.08.2.27.2.45.2.1 0 .18.08.18.08.18 0 .46.1.64 0 .28.1.64 0 .92.1.08 0 .08.1.08.18.1.1.18.28.27.37.1.1.28.1.37.1 0 0 0 .08.1.18 0 .1 0 .1.08.18.1.1.1.1.1.2s-.1.18-.1.37v.18c.18.2.37.37.55.46 0 0 .1 0 0 .1.1 0 .1.1.18.2 0 .08 0 .08.1.18l.27.27c.1.1.27.1.37.1 0 0 .1 0 .1.1.08 0 .26.08.35 0 .1-.1.1-.2.2-.2.08-.1.26-.1.35-.1 0 0 .1 0 .1-.08 0-.1.1-.1.1-.2.08 0 .17-.08.26-.08.18-.1.27-.3.46-.38.17-.1.35-.1.44-.18.1-.2 0-.37 0-.56 0-.1.1-.18.1-.28v-.46c0-.1-.1-.18-.1-.28 0-.1.1-.1.2-.1.08-.08.08-.27.17-.36 0 0 .1 0 .1-.1.1 0 0-.08 0-.18-.1 0-.1-.1-.1-.1-.08-.17-.26-.36-.45-.45-.1 0-.1-.1-.1-.1v-.1c-.08 0 0-.08-.08-.08h.1c.08-.1.08-.3.17-.38 0 0 .1 0 .1-.1v-.27c-.1-.1 0-.28 0-.37 0-.28 0-.46-.1-.74 0-.1-.1-.1-.18-.1 0 0 0 .1-.1.1 0 0 0 .1-.08.2 0 .08-.18.08-.18.17 0 .1 0 .1-.1.2l-.1.1c.38-.3.3-.3.3-.2h-.3c-.54-.18-1-.37-1.45-.46h.27c.1 0 0-.1 0-.1.1 0 .2.1.28.2.18.1.46.1.64.18.18 0 .27.18.46.18.18 0 .27-.1.36-.1v-.08c.1-.1.18-.2.18-.28v-.28l.1-.1v-.36c.1 0 .1-.1.1-.1v-.28c0-.17 0-.36-.1-.45 0-.1-.1-.1-.2-.1 0 0 0 .1-.08.1-.1 0-.18 0-.18.1-.1 0-.1.08-.1.08-.08.1-.18.2-.36.2-.1 0-.18 0-.18-.1-.1-.2.18-.2.36-.2l.1-.08c0-.1.1-.2.18-.2h.18c.1 0 .1-.08.18-.08 0 0 0-.1.1-.2 0-.08.1-.08.18-.18.1-.18.1-.37.18-.55.1-.1 0 .1.1.18.08.1.18.1.27 0 .1-.1 0-.18.1-.18h.08c.1 0 .1.1.18.1 0 0 .1-.1.2-.1h.26c.17-.1.54 0 .54-.2 0-.26-.27-.54-.55-.63-.2-.1-.1-.37-.28-.56-.1 0 0-.1-.1-.18l-.1-.1-.08-.1v-.45c0-.1.1-.1.2-.1.08-.1.17-.1.17-.18v-.37l.1-.1c.18 0 .46.1.64-.08.1 0 .1-.1.1-.2.17-.17.36-.36.36-.73-.1.08 0 .08 0-.1.1.1.1 0 0 0m-4.12 5s0 .08 0 0c-.1.08-.1.08-.18 0 0-.1-.1-.1-.1-.2-.1 0-.1 0-.1.1h-.17c0-.1-.1-.1-.1-.18-.08-.1 0-.2.1-.2s.1 0 .1.1v.1c.08.1.08 0 .18 0h.28c0 .1.1.18 0 .27"/><path d="M15.27 36.7c1.2-1.77 4.76-3.62 8.24-3.62 3.48 0 7.33 2.03 8.8.92 0 0-1.57 1.3-4.68 1.3-3.1 0-4.3-1.57-6.4-1.57-2.2 0-4.4 1.75-5.4 3.23l-.55-.27z"/><path d="M26.34 32.8s1-.65 1.56-1.76c.55-1.1 1.92-2.96 3.38-4.07 0 0-1.55 5.1-3.2 5.28 0 0-.27.18.18.1.46-.1 2.57-.84 3.3-1.03.73-.1 2.56-.55 3.02-1.02.45-.37.73-.37.73-.37s-2 3.43-5.66 3.43c0 0-1.83-.1-3.3-.56"/><path d="M30.64 31.04s.37-.55.46-1.57c.1-1.02.73-3.33 2.47-5.83 0 0 .27 3.98-1.74 6.48 0 0-.1.37.1.1.27-.3 1.46-1.77 4.2-3.62 0 0 1.37-1.2 1.47-1.57 0-.1-1.1 5.64-6.96 6"/><path d="M34.03 27.25s.18-.65.18-1.2c0-.56-.26-2.4-.26-3.24 0-.82.1-2.4.73-3.4 0 0 0 .92.18 1.28.18.37.46 2.04.46 2.32 0 .18-.08 1.57-.36 2.3 0 0 .28-.18.55-.73.27-.56 1-1.57 2-2.6 1-1 1.28-1.93 1.28-1.93s.28 1.85-1.1 3.8c-1.37 1.93-1.9 1.65-2.65 2.4 0 0-.9 1-1 1"/><path d="M36.13 22.72s0-1.1-.27-1.48c-.2-.37-1.47-2.6-1.2-5.46 0 0 .2-.18.56.93.36 1.12.9 1.5 1.1 2.6.18 1.1.18 1.57.18 1.57s.1.18.1 0c0-.1.08-1.66.72-2.96.64-1.38 1.46-2.67 1.37-3.6 0 0 .36 0 .27 1.48.1 1.48-.28 4.07-2.84 6.94"/><path d="M36.86 18.28s-.45-1.02-.73-1.4c-.27-.36-2.47-3.4-2.65-4.9 0 0 .18-.08.36.3.2.36 1.2 1.38 1.38 1.56.18.2 1.28 1.3 1.37 2.6 0 0 .08.08-.1-1.95-.2-2.05.64-3.43-.1-4.9 0 0 1 .17 1.56 4.43 0 0 0 1.48-.82 3.33.1-.1-.2.92-.28.92"/><path d="M36.04 13.56s-.82-.83-1.46-1.2-2.66-2.4-3.02-3.98c0 0 .1-.18.73.65.45.65 1 .37 2.46 2.22 0 0 .18.46.27.37.1 0-.1-.46-.1-.46s-.08-1.1-.08-1.48c0-.37-.64-2.6-.82-2.87 0 0 2 1.12 2.28 4.36-.08 0-.17 2.3-.26 2.4"/><path d="M34.4 10.14s.08-2.77-3.48-4.25c0 0 1.28 2.58 2.2 3.22.9.65 1.27 1.02 1.27 1.02"/><path d="M25.06 36.7c-1.2-1.77-4.76-3.62-8.23-3.62-3.48 0-7.32 2.03-8.8.92 0 0 1.57 1.3 4.68 1.3 3.12 0 4.3-1.57 6.4-1.57 2.12 0 4.4 1.75 5.4 3.23l.56-.27z"/><path d="M14 32.8s-1.02-.65-1.56-1.76c-.55-1.1-1.93-2.96-3.4-4.07 0 0 1.57 5.1 3.2 5.28 0 0 .3.18-.17.1-.46-.1-2.56-.84-3.3-1.03-.73-.1-2.56-.55-3-1.02-.38-.37-.74-.37-.74-.37s2 3.43 5.67 3.43c0 0 1.83-.1 3.3-.56"/><path d="M9.7 31.04s-.37-.55-.47-1.57c-.1-1.02-.73-3.33-2.47-5.83 0 0-.27 3.98 1.74 6.48 0 0 .1.37-.1.1-.26-.3-1.45-1.77-4.2-3.62 0 0-1.37-1.2-1.46-1.57 0-.1 1.1 5.64 6.95 6"/><path d="M6.3 27.25s-.18-.65-.18-1.2c0-.56.28-2.4.28-3.24 0-.82-.1-2.4-.73-3.4 0 0 0 .92-.2 1.28-.17.37-.44 2.04-.44 2.32 0 .18.1 1.57.36 2.3 0 0-.28-.18-.56-.73-.27-.56-1-1.57-2-2.6-1.02-1-1.3-1.93-1.3-1.93s-.27 1.85 1.1 3.8c1.38 1.93 1.93 1.65 2.66 2.4.1 0 .9 1 1 1"/><path d="M4.2 22.72s.1-1.1.28-1.48c.18-.37 1.46-2.6 1.2-5.46 0 0-.2-.18-.56.93-.37 1.12-.92 1.5-1.1 2.6-.28 1.1-.28 1.57-.28 1.57s-.1.18-.1 0c0-.1-.08-1.66-.72-2.96-.64-1.38-1.46-2.67-1.37-3.6 0 0-.37 0-.28 1.48 0 1.48.37 4.07 2.93 6.94"/><path d="M3.47 18.28s.46-1.02.73-1.4c.28-.36 2.47-3.4 2.66-4.9 0 0-.2-.08-.37.3-.2.36-1.2 1.38-1.38 1.56-.2.2-1.28 1.3-1.38 2.6 0 0-.1.08.1-1.95.18-2.05-.64-3.43.1-4.9 0 0-1.02.17-1.57 4.43 0 0 0 1.48.83 3.33-.1-.1.18.92.27.92"/><path d="M4.3 13.56s.82-.83 1.46-1.2 2.65-2.4 3.02-3.98c0 0-.1-.18-.74.65-.45.65-1 .37-2.47 2.22 0 0-.18.46-.27.37-.1 0 .1-.46.1-.46s.27-1.2.27-1.57c0-.38.64-2.6.82-2.88 0 0-2.02 1.1-2.3 4.35-.1.1 0 2.4.1 2.5"/><path d="M5.94 10.14s-.1-2.77 3.48-4.25c0 0-1.28 2.58-2.2 3.22-.9.65-1.28 1.02-1.28 1.02"/></g></svg>