<svg xmlns="http://www.w3.org/2000/svg" width="149" height="37"><g fill="#007AC0" fill-rule="nonzero"><path d="M48.4 19.4c0-7.1 5.2-12.7 12.6-12.7 7.3 0 12.6 5.5 12.6 12.7C73.5 26.5 68.3 32 61 32c-7.4 0-12.6-5.5-12.6-12.6m21.7 0c0-5.3-3.6-9.6-9.1-9.6s-9.1 4.3-9.1 9.6S55.5 29 61 29s9.1-4.4 9.1-9.6"/><path d="M95 12.5c-1.4-1.8-3.6-2.8-5.8-2.8-5.4 0-9 4.3-9 9.8 0 5.1 3.4 9.4 9 9.4 2.8 0 4.9-1.2 6.3-3.2l2.8 2.1c-.7 1-3.6 4.2-9.1 4.2-7.7 0-12.4-6.4-12.4-12.5 0-7.5 5.1-12.9 12.6-12.9 3.2 0 6.5 1.2 8.4 3.7L95 12.5z"/><path d="M102.2 7.3h3.3v10h12.4v-10h3.3v24.1h-3.3v-11h-12.4v11h-3.3"/><path d="M135 7.3h3l10.3 24.1h-3.8l-2.4-6h-11.5l-2.4 6h-3.8L135 7.3zm5.8 15.3l-4.5-11.1h-.1l-4.6 11.1h9.2z"/><path d="M17.6 15.6c0-1.8 1.5-3.3 3.3-3.3 1.8 0 3.3 1.5 3.3 3.3 0 1.8-1.5 3.3-3.3 3.3v-.4c1.6 0 2.9-1.3 2.9-2.9 0-1.6-1.3-2.9-2.9-2.9-1.6 0-2.9 1.3-2.9 2.9 0 1.6 1.3 2.9 2.9 2.9v.4c-1.8 0-3.3-1.5-3.3-3.3"/><path d="M15 15.6c0-3.3 2.7-6 6-6s6 2.7 6 6-2.7 6-6 6v-.4c3.1 0 5.6-2.5 5.6-5.6 0-3.1-2.5-5.6-5.6-5.6-3.1 0-5.6 2.5-5.6 5.6 0 3.1 2.5 5.6 5.6 5.6v.4c-3.3 0-6-2.7-6-6"/><path d="M12.1 15.6c0-4.9 4-8.9 8.9-8.9s8.9 4 8.9 8.9-4 8.9-8.9 8.9V24c4.7 0 8.4-3.8 8.5-8.4 0-4.7-3.8-8.4-8.5-8.5-4.7 0-8.4 3.8-8.5 8.5 0 4.7 3.8 8.4 8.5 8.4v.4c-4.9.1-8.9-3.9-8.9-8.8"/><path d="M9.3 15.6C9.3 9.2 14.5 4 21 4c6.4 0 11.6 5.2 11.6 11.6 0 6.4-5.2 11.6-11.6 11.6v-.4c6.2 0 11.2-5 11.2-11.2 0-6.2-5-11.2-11.2-11.2-6.2 0-11.2 5-11.2 11.2 0 6.2 5 11.2 11.2 11.2v.4c-6.5 0-11.7-5.2-11.7-11.6"/><path d="M6.3 15.6C6.3 7.5 12.9.9 21 .9s14.7 6.6 14.7 14.7S29.1 30.3 21 30.3v-.4c7.9 0 14.3-6.4 14.3-14.3S28.9 1.3 21 1.3 6.7 7.7 6.7 15.6 13.1 29.9 21 29.9v.4c-8.2 0-14.7-6.6-14.7-14.7"/><path d="M20.7 1.1h.4v11.4h-.4z"/><path d="M10.6 5.5l.3-.3 8 8-.3.3"/><path d="M6.5 15.4h11.4v.4H6.5z"/><path d="M10.6 25.7l8-8 .3.3-8 8"/><path d="M20.7 18.7h.4v11.4h-.4z"/><path d="M23.02 17.9l.28-.3 7.97 8.03-.28.28z"/><path d="M24.1 15.4h11.4v.4H24.1z"/><path d="M23 13.2l8.1-8 .2.3-8 8"/><path d="M18.7 16.5c.1 0 .1.1.1.2h.1c.2-.2.3-.5.4-.7 0 0 .1 0 .1-.1s-.2-.2-.2-.3c-.1.2-.3 0-.4.1v.1h.1v.2c-.1-.1-.2-.1-.3-.1.1 0 0 0 0 .1-.2 0-.4 0-.5.1-.1 0-.1 0-.2-.1-.1.1-.1.2-.2.2l-.1-.1c.1-.1.2-.1.2-.2v-.3c.1-.1.1-.2.2-.2s.3.1.4 0l.1.1v.1c-.1.1-.2.1-.2.2s0 .1.1.1.1-.1.2-.1c0-.1.1 0 .1 0h.3c.1 0 .1-.3 0-.4v-.1-.1c0-.1.2-.1.2 0v.1s0 .1.1 0v-.2s.1.1.2.1h.2c.1 0 .1-.1 0-.2h-.1c-.1.1-.2.1-.2.1-.1 0-.1-.1-.2-.1s-.2.1-.2 0c-.1 0-.1-.1-.1-.2l.1-.1c.1 0 .2 0 .3-.1 0-.1.1-.2.1-.2h.1c.1 0 .2 0 .3-.1.1 0 .2-.1.3-.2.1 0 .1-.1.2-.1 0 0 0-.1.1-.1v-.5c0-.1.1-.1.1-.1h-.1s-.1-.1 0-.1c0 0 .2 0 .2-.1.1-.1 0-.3-.1-.3-.1-.1-.2 0-.3 0 0 0 0 .1-.1.1s-.2-.1-.1-.2v-.1h-.1l-.3.3v.1c0 .1 0 .2-.1.2h-.1c0 .1.2.1.1.2s-.2.1-.4.2c-.3.1-.6 0-.9 0h-.5c-.1 0-.1.1-.2.2v-.2c0-.1-.1 0-.1-.1-.2-.4-.7-.3-1.1-.3-.1 0-.1.1-.1.1-.1.1-.2 0-.3 0l-.1.1c-.1 0-.2-.1-.3 0-.1.1-.1.1-.2.1v.1h-.1c-.1 0-.3 0-.3.1s0 .3-.1.3-.3 0-.4.1c-.1 0-.1.1-.2.1-.2.4-.4.7-.4 1.2v.1c-.2.4-.3.6-.6 1.1-.1.2-.2.6 0 .7.1.1 0 .2-.2.2s-.4 0-.4-.2c0-.1-.2-.1-.3-.1h-.4c-.2 0-.2.3-.3.4-.1.1-.3.1-.3.2v.2s-.1 0-.1.1v.1c0 .2-.1.3 0 .5v.1c0 .2 0 .3-.1.5s-.3.2-.5.2H9.6c-.1 0-.1-.1-.2-.1-.1-.1-.1-.2-.1-.2-.1-.1-.3 0-.4.1.1 0 0 .1 0 .1-.1 0-.2.1-.3.2-.1.1-.2-.2-.2-.3 0-.1-.1-.1-.2-.1v.1h-.1c-.1.1.1.1.1.1v.1h-.1c0 .1-.1.1-.1.1-.1 0-.1.1-.1 0v-.2h-.1c0 .1 0 .1-.1.1v.1h.2c.1.1.1.2.1.3 0 .1 0 .2-.1.1s0-.2 0-.3h-.1c.1.2-.1.3.1.5.1.1-.2.2-.1.2 0 0 .1.1.2.1v-.1s.1-.1.1 0v.1H8v.4c0 .1.2 0 .2.1s-.1.1 0 .2c0 0 .1 0 .1.1v.1s.1 0 .1.1c.1 0 .1 0 .1-.1.1 0 .1-.1.1-.2 0 0 0-.1-.1 0V21c0-.1-.1-.1-.1-.2.1 0 .1 0 .2-.1 0 0 .1 0 .1.1v.1c.1 0 .1.1.1.1.1 0 .1.1.2.2h.3v-.1l.1.1c0 .1 0 .2.1.3h.1l.1.1h.1c.1 0 .1.1.1.1.1 0 .2 0 .2.1.1.1.1.2.2.4 0 .1.1.1.1.1s0 .1.1.1c.1.1.2.1.3.1 0 0 .1-.1.2-.1h.1c.1.2.1.4.3.4.1 0 .1.1.2.2h.2s0 .1.1.1c.1.1.2.1.2.2v.1c.1 0 .2-.1.2 0 .1.1.2.1.2.2h.1v-.1c0-.1.1 0 .2-.1.1 0 .1-.2.1-.2.1 0 .2.1.3.2h.1c.1.1.1.3.2.3.2 0 .2.1.4.2.1 0 .2.1.3.1h.1c.1 0 .1 0 .2-.1s.3-.1.4-.2l.1-.1c.2-.1.5.1.7 0 .1 0 .1 0 .2-.1s.2-.3.1-.4c-.1-.2-.2-.5-.3-.7l-.3-.3h-.1c-.1 0-.1-.1-.1-.2 0 0-.1 0-.1-.1V21.5c-.1 0-.2-.1-.4-.1 0 0-.1 0-.1-.1v-.1c.1-.1.2-.1.3-.1V20.8s0-.1-.1-.1c0-.1.1-.2 0-.3-.1-.1-.2-.2-.2-.3 0 0-.1 0-.1-.1v-.5c0-.1-.1-.1 0-.2l.1-.1c.1 0 .1-.1.1-.2-.1-.1-.2 0-.2 0V18.7l-.1-.1v-.2s0-.1-.1 0v-.2c0-.1-.1-.2-.2-.1 0 0-.1.1-.2 0V18s.1 0 .1-.1c.1-.1 0-.2 0-.2-.1-.1-.2-.2-.1-.3-.1 0-.3 0-.3-.2s0-.3-.1-.4v-.3s0-.1.1-.1c.2 0 .4 0 .4-.1.1-.1-.1-.3 0-.3.2-.1.4 0 .6-.2.1 0 .1-.1 0-.2 0-.1-.1-.2-.1-.2-.1-.1-.2 0-.3-.2V15c0-.1.1-.1.2-.2.2-.1.3 0 .5.1l.1.1v.1c0 .2.1.4 0 .6 0 .1-.1.1-.1.2h.1c0 .1.1.3 0 .4-.1.1-.1 0-.3 0-.1 0-.1 0-.1.1l.1.1c.4.1.5.1.9.2.1 0 .1.1.2.1H16.1c0 .1.1.1.1.1.1.1.1.3.2.3.1-.1.2 0 .2 0-.1.1 0 .2 0 .3.1.1.2.1.3.2.1.1.2.1.2 0s-.1-.2 0-.3c.1.2 0 .4.1.6.1.1.1.2.2.2s.1-.1.1-.2v-.1c0-.1 0-.1.1-.2 0-.1.1-.2.1-.3v-.1c0-.1.2-.2.3-.2V17c.1 0 0-.2.1-.2 0-.1.1-.1.1-.2 0 0 .1-.1 0-.1.5.1.5 0 .5 0"/><path d="M14.5 16.3h-.1v.1l.1.1v.3c0 .1.1.2.2.1s.2-.3.1-.4c-.2 0-.1-.1-.3-.2"/><path d="M14.3 17.2c.1.2.2.1.3.1v-.1c-.1-.1-.1-.1-.3 0 .1-.1 0-.1 0-.1v.1"/><path d="M14.6 17.6c0-.2-.1-.2-.2-.1s0 .3.1.4c0 0 0 .1.1.1 0 .1.1 0 .2 0 0-.1 0-.1.1-.1-.1-.1-.2-.3-.3-.3"/><path d="M14.3 16.8c0-.1-.1-.1 0 0-.1 0-.1 0-.1.1s0 .2.1.2c0 0 .1 0 .1-.1-.1-.1-.1-.1-.1-.2"/><path d="M14.7 17.4l.1-.1h.1v-.1c-.1 0-.1.1-.2.1s0 .1 0 .1"/><path d="M14.6 18.3c0 .1 0 .1.1.1h.1v-.1h-.2c0-.1 0 0 0 0"/><path d="M14.8 19c0-.1.1-.1 0-.2h-.1c0 .1.1.2.1.2"/><path d="M8.5 21.5v.1h.2c-.1 0-.1-.2-.2-.1"/><path d="M9.1 22.2c-.1.1.1.2.2.2v-.2s-.1-.1-.2 0"/><path d="M9.4 22.6c0 .2.1.3.2.3.1-.2 0-.3-.2-.3"/><path d="M19.5 17.4c.2-.1.4-.1.6-.1.4 0 .4-.6.6-.9 0-.1 0-.3-.1-.4-.1-.2-.6 0-.7-.2-.1-.1.3.1.3-.1 0-.1 0-.1-.1-.2h-.2c-.2.2-.3.5-.4.8-.3.4-.7.7-.9 1.2 0 .1 0 .1.1.2.3.1.6-.2.8-.3"/><path d="M21.3 16.4c-.1 0-.1 0-.2.1v.2h.1c0-.1 0-.1-.1-.1.2-.1.2-.2.2-.2"/><path d="M20 17.9c.1.2.5.1.5 0s-.3-.2-.4-.2c-.2 0 .1.1-.1.2"/><path d="M20.5 19.2c.1-.1.1-.2.1-.3l-.3.3h.2"/><path d="M22.3 16.5v-.1h-.2c-.1 0-.1-.1-.1-.2s-.1-.2-.1-.3c-.1 0-.1.2-.1.2.2.2.3.5.5.4"/><path d="M19.9 15.3c-.1-.1-.1 0 0 0-.1.1 0 .1 0 0"/><path d="M8.1 19.1s0-.1-.1-.1h-.1v.1s.1.1.2 0"/><path d="M8.8 19.1c.1 0 .2-.1.1-.2s-.3 0-.2.1c-.1.1 0 .2.1.1"/><path d="M20.2 12.1c0-.1.1-.1.1-.2h-.1c-.1 0-.1.1 0 .2-.1-.1-.1-.1 0 0-.1 0 0 0 0 0"/><path d="M20.5 12s.1-.1 0-.1h-.1s0 .1.1.1"/><path d="M19.4 14.6c0 .1.2.3.3.2.1-.1 0-.2 0-.2-.1-.1-.2-.1-.3 0"/><path d="M19.7 15.4v-.1h-.2-.1s0 .1.1.1c0-.1.1 0 .2 0"/><path d="M19.4 15.6c-.1 0 0 .1 0 .2.1 0 .1 0 .2-.1 0-.1.1-.2 0-.2s-.2 0-.2.1"/><path d="M19.2 15.3c0 .1-.1.2 0 .3 0 .1.1 0 .1 0 0-.1 0-.2.1-.2h-.1v-.1h-.1"/><path d="M26.8 22.4c.1 0 0-.1 0 0"/><path d="M21 18.5c0 .1 0 0 0 0l-.1-.1c0-.1-.1.1-.2 0 .1.1 0 .1-.1.2 0 .1.1.1.1.1 0 .1-.1.1 0 .2l-.1.1s-.1.1 0 .1c.1.1.2-.1.3-.1h.1c.1 0 .1-.1.2-.2H21s-.1 0 0-.3c0 .1 0 0 0 0"/><path d="M21.6 20.4c0 .1.1.1 0 0 .1 0 .1-.1.1-.2h-.1v.2"/><path d="M21.7 20.2c.1 0 0-.1 0-.1h-.1s0 .1.1.1"/><path d="M22.3 20.5s0-.1 0 0c-.1 0-.1-.1-.2 0H22v.1c.2-.1.2-.1.3-.1"/><path d="M23.3 20.4v-.1c-.1 0-.2.1-.3 0v.1h-.1c.2.1.3 0 .4 0"/><path d="M23.7 20c0 .2.2.1.2 0 .1-.1 0-.1-.2 0l.1-.1c0 .1-.1.1-.1.1"/><path d="M28.5 16.8c0 .1.1.1.2.1s.2 0 .3-.1c0-.2-.1-.3-.3-.3-.2.1-.2.2-.2.3"/><path d="M28.5 21.9h-.1c-.1.5-.6 1.2 0 1.5.2.2.5-.1.6-.3 0-.3 0-1-.5-1.2"/><path d="M27 19.7c-.1 0-.1.2 0 .2 0 0 .1 0 .1-.1v-.1H27"/><path d="M27.4 24.8v.2s.2-.1 0-.2"/><path d="M29.7 13.1h-.1v.2c-.2.4-.7.9-.4 1.4.1-.1.2-.2.3-.4.1-.3.3-.6.4-1 0 0-.1-.2-.2-.2"/><path d="M28.8 14.9c0 .1 0 .1.1.1s.1-.1 0-.1c0-.1 0-.1-.1 0"/><path d="M23.7 11.8c-.1-.2-.2 0-.3 0l-.1-.1h-.1c-.1 0 0 .2.1.2s.1-.1.1 0c.1.1 0 .3.2.2.1 0 .2-.1.3-.1.1 0 .1-.1.1-.2.1 0 .2-.1.3 0 0 0 0 .1.1.1 0 .1.1.1.2.1s.2 0 .3-.1c.1-.1.1-.2 0-.3h-.2c-.1 0-.1-.1-.2-.1-.4-.1-.6.2-.8.3"/><path d="M24.6 12s-.1 0 0 0h-.1.1z"/><path d="M22.7 12h.3c0-.2-.2-.1-.3-.1.1-.1.1 0 0 .1 0-.1 0-.1 0 0-.1-.1 0 0 0 0"/><path d="M23.1 12.6c.1-.1.3-.2.4-.3v-.1c0-.1-.1-.1-.2-.2 0 .1-.1.1-.1.1-.1.1-.2.1-.2.2v.2c.1.3.1.2.1.1"/><path d="M21.6 11.6v.1c.1.1.1 0 0-.1"/><path d="M18 9.4c.1.1.3.1.4.1l.1-.1c-.1-.1-.2 0-.2-.1h-.1c-.1-.1-.2 0-.2.1-.1 0 0 0 0 0"/><path d="M27.1 11c0 .1-.1 0-.2.1v.1c.1.1.2 0 .3 0 0 0 .1-.1.1 0v.1c-.1 0-.1.1-.1.1H27h-.1v.2c-.1.1-.4.2-.3.4.1.1.3.1.5.1 0-.2.1-.2.2-.3 0 0 0-.1-.1-.1v-.1c.1 0 .1-.1.1-.1v-.1c.1 0 .2-.1.2-.1 0-.1-.1-.2-.1-.3 0 0 0-.1.1-.1v-.1h-.1s-.1 0 0 .1c-.1 0-.2 0-.3.1 0-.2.1 0 0 0"/><path d="M26.1 12c0 .1.1.1.2 0h-.2"/><path d="M27.5 11.8c-.1.1.1.1.2.1 0-.1-.1-.1-.2-.1"/><path d="M27.9 11.3c-.1 0-.1 0 0 0-.1 0-.1.1 0 0 0 .1 0 .1 0 0"/><path d="M25.6 7.3c.1.1.2.1.2.2v.4l.1.1v.2c0 .1.1.3.1.4.1 0 .1.1.1.1 0 .1 0 .1.1.2 0 .1.1 0 .2.1s.2.3.3.4c0 0 .1 0 .1.1v.1c.2 0 .5.1.4.4.1-.1.2-.1.2-.2s.1-.3 0-.4c0-.1-.1-.1-.2-.2V9c0-.1-.1-.1-.1-.1 0-.1-.1-.3.1-.3v-.1H27v-.1c0-.1 0-.2-.1-.3-.1-.1-.2-.1-.3-.1-.1-.1-.1-.1-.2-.1h-.2c-.2-.2-.3-.4-.4-.6-.1-.1-.2-.1-.3 0 .1-.1.1-.1.1 0 0-.1 0-.1 0 0 0-.1 0 0 0 0"/><path d="M24.7 7.6c-.1.1 0 .2 0 .2h.4c.1 0 .1-.1.1-.1.1-.1.2 0 .4-.1 0 .1 0 .1.1.1 0-.1 0-.2-.1-.2-.1-.1-.1-.2-.2-.3h-.1c0 .2-.1.1-.3.2v0h-.2c0 .1-.1.2-.1.2"/><path d="M22.4 3.7c-.1-.2-.3-.4-.2-.7.3.1.6.1.9 0 .2-.1.5 0 .7-.1v-.2c-.3.1-.5-.2-.7-.1-.3.2-.6.2-.9.3-.2.1-.9 0-.9.4.3 0 .7 0 .9.3 0 .1.1.1.2.1"/><path d="M23.4 5.2c.1.2.3.2.4.2 0-.1 0-.1-.1-.2h-.3"/><path d="M23.1 5.7c-.1 0 0 .1.1.2 0-.1.1-.3-.1-.2"/><path d="M22.9 5.4c.1-.1 0-.2-.1-.2v.1l.1.1"/><path d="M23.8 6.5s0 .1 0 0c.1-.1.1-.2.1-.2h-.1c-.1.1 0 .2 0 .2"/><path d="M24.1 6.5v.1c.1.1.1 0 0-.1.1.1.1.1 0 0 .1 0 0 .1 0 0"/><path d="M24 6.8c.1-.1.1-.1 0 0l.1-.1c0-.1-.1-.1-.2 0-.1 0 .1 0 .1.1"/><path d="M24.1 6.8c0 .1.1.2.2.1 0 0 .1-.1 0-.1h-.2z"/><path d="M24.6 7c0-.1-.1-.2-.1-.2s-.1.1 0 .1c0 .1 0 .1.1.1"/><path d="M24.7 7.3h.1v-.2h-.2v.1l.1.1"/><path d="M24.5 7.5c.1-.1.1-.1 0-.2h-.1s0 .1-.1.1c.1.1.1.1.2.1"/><path d="M24.2 2.5c-.1-.1-.1-.1-.2-.1.1.1.1.2.2.1"/><path d="M27.6 5c.1.1.2 0 .2.1.1.1.1.2.2.2s.1 0 .1-.1c0-.2 0-.4-.2-.4h-.5c-.1 0-.1.1-.1.2.1-.1.2-.1.3 0"/><path d="M31.7 10.2c-.1-.1-.1-.3-.2-.4-.1-.1-.2-.1-.3-.2v-.2l-.1-.1c-.1-.2-.1-.3-.3-.3 0-.2-.1-.2-.3-.3v-.1c0-.1-.1-.1-.1-.1h-.1c-.1-.1-.2-.2-.2-.3 0-.1-.2-.2-.3-.3l-.1-.1c-.1 0-.2 0-.2-.1 0-.2-.2-.3-.3-.4-.2-.1 0-.4-.1-.7 0-.1-.1-.1-.2-.1 0 0-.1 0-.1-.1-.1-.1 0-.3-.1-.4-.1-.2-.3-.3-.4-.5-.1-.1-.2-.1-.3-.1h-.1l-.1-.1c-.1-.1-.2-.2-.3-.2-.2-.1-.4 0-.6-.1-.2 0-.4 0-.5.2-.2.1-.3.2-.5.2-.1 0 0 .1 0 .2s-.2.2-.1.2h.2c.1 0 .1.1.1.1.1.1.2.2.2.3 0 0-.1.1 0 .2s.1.2.1.3c0 .1.1 0 .1 0 .2.1.2.3.1.4v.3c.1.2.1.4.2.5l.1-.1c.1 0 .1-.1.2-.1.2-.2.4.2.5.3.1.2 0 .4.1.6.1.2.2.3.3.4 0 0 0 .1.1.2l.1.1s0-.1.1-.1h.1c.2.2.2.6.5.6 0 0 0 .1.1.1s.1-.1.2 0c0 .1.1.2.1.2h.3c.1 0 .1.1.2.2l.1.1c.2.2.3.5.5.7.1.1.2.2.3.1v-.1c.1 0 .2-.1.2-.2l.3-.3c.1-.1.2-.1.3-.2.3 0 .2-.2.2-.2"/><path d="M27.7 9.7h.1-.1z"/><path d="M27.5 10.3c0 .1.1.1.2.1.1.1.1.2.2.2.1.1.1-.1.1-.2h.1c.1-.1 0-.3-.1-.4-.1-.1-.1-.2-.3-.2-.1 0-.1 0-.2.1s0 .2 0 .3v.1"/><path d="M28.2 10.7c-.1.2 0 .4 0 .6 0 .1-.2.1-.2.2 0 0-.1.1 0 .2 0 .1.2.1.3.2.2.1.5.3.6.6.1.1.1.2.1.3.1.1.2.1.2.2s.1.1.1 0c.1-.1.1-.3 0-.4-.1-.1-.1-.1-.1-.2 0-.3-.1-.5-.2-.8l-.3-.3v-.1c0-.1.1-.1.1-.2s-.1-.2-.2-.3h-.1.1c-.2-.1-.3-.1-.4 0"/><path d="M29.7 12.1v-.2c0-.2-.2-.2-.3-.2h-.1v.2c.2.3.2.6.3 1 0 .1.3 0 .3-.1v-.2c0-.1-.1-.1-.1-.2s-.1-.2-.1-.3"/><path d="M29.3 11.2c-.1.1 0 .2 0 .3.1 0 .1 0 .1-.1-.1 0 0-.1-.1-.2"/><path d="M29.3 11c0-.1 0-.1-.1-.1 0 .1-.1.1-.2.1-.1.1 0 .1.1.2.2 0 .3-.1.2-.2"/><path d="M28.8 10.5c.1.1 0 .2.1.2s.2.1.3 0c.1 0 0-.1-.1-.1v-.1H29c-.1-.1.1-.1 0-.2v-.1h-.1v.1c-.1.1-.2.2-.1.2"/><path d="M28.7 9.9c-.1 0-.2 0-.2-.1h-.1s-.1.1 0 .1.1.1.1.1c0 .1.1 0 .1.1s.1.1.1 0V10s0-.1 0 0c0 0 .1-.1 0-.1"/><path d="M21.6 14.5c.1-.1.1-.1 0 0 .1-.1 0-.2 0-.2s-.1 0-.1.1c.1 0 .1 0 .1.1"/><path d="M29.4 13.2c-.1 0-.3 0-.4.1-.2.1-.3.4-.4.6-.1.1-.2.2-.4.2 0 0-.1 0-.1-.1v-.2l.1-.1c.1-.1 0-.2 0-.3-.1-.2-.3-.4-.5-.3-.2 0-.3.3-.5.5-.1-.1-.2-.2-.2-.3v-.1c.1 0 .2.2.2.1.1-.1 0-.2-.1-.2s-.1-.1-.2-.1-.1-.1-.2-.2c0-.1 0-.3-.1-.3s-.2 0-.3-.1h-.2v-.1c.1 0 .3 0 .2-.2 0-.1-.1-.1-.2-.1H26V12.3c-.1.1-.2.1-.3.1h-.1c-.1 0-.2-.1-.3-.1-.1.1-.1.2-.2.2s-.1 0-.2.1c-.1 0-.1.2 0 .3v.1c-.1 0-.1-.1-.1-.1 0-.1-.1-.2-.1-.3 0-.1.1-.2.2-.3v-.2c-.1-.1-.1-.1-.2-.1-.2.1-.3.4-.5.3-.1 0-.2-.2-.3-.2-.1 0-.1-.1-.2 0s-.3.2-.5.3c-.1.1-.3.2-.3.4-.1.2-.4.3-.6.1-.1-.1-.2-.2-.3-.2-.1 0-.2.2-.3.2-.1 0-.1 0-.2-.1v-.1l.6-.3c.1 0 .1-.1.1-.2V12c-.3 0-.5.2-.6.4 0 0 0 .1-.1.1-.2 0-.3.1-.5 0l-.1-.2c-.1.1-.1.2-.2.2l-.1.1c-.1.1.1.3 0 .4 0 .1-.2.1-.3.1v.2c0 .1.1 0 .1.1.1.1.1.3.2.3.2.1.3 0 .5.1.1 0 .2.1.3.2 0 .1.1.1.1.2 0 0 0 .1.1.1h.2c.1 0 0 .1.1.2 0 .1 0 .2.1.4 0 0 0 .2-.1.2 0 0-.1 0-.1.1v.3h.1c.1.1.1.2.2.3l.1.1c-.1 0-.1.1-.1.1s.1.1.2 0c.1 0 .1-.1.2-.1 0 0 .1 0 .1-.1 0 0 .1.1.1.2-.1.1-.3 0-.4.1-.1 0-.1 0-.2.1 0 0 0 .1.1.1.2.1.1.4-.1.6v.2H22c-.2 0-.5-.1-.7 0-.1 0-.1.1-.1.2-.1 0-.1.1-.1.1v.2c-.2.2-.2.5-.3.7 0 .1.1.1.1.1.1 0 .1-.1.2-.1s.1.2.1.2c0 .1.2.1.2 0s0-.2.1-.3c0-.1-.1-.2-.1-.3 0-.1 0-.2.1-.2 0 0 .1 0 .1.1v.4s.1.1 0 .2c0 0 0 .1-.1.1v.2c-.1.1-.1.1-.1.2-.2 0-.4-.1-.3-.3-.1 0-.1 0-.2.1v.3c-.1.1-.1.2-.2.3v.1c-.1.1-.2.2-.3.2-.1.1-.2 0-.2.1s.1.2.1.3c0 .1 0 .1-.1.2h-.4c0 .1 0 .2-.1.3-.1.1 0 .2.1.2.1.1.1.2.2.2s.1.1.2.1.2-.1.2-.2.1 0 .2 0h.1c.1-.1 0-.2 0-.2l.4-.4c.1 0 .1-.1.2-.1s.1.1.2.1.1.1.2.1h.1c.1 0 .2.2.3.2 0-.1 0-.2-.1-.3-.1-.1-.2-.2-.3-.2v-.1c.1.1.1.1.2.1.1.1.1.2.2.3.1 0 .1.1.2.1s.2 0 .3-.1c0-.1 0-.1-.1-.1-.1-.1 0-.1.1-.2s0-.2 0-.3v-.1c.1-.1 0-.2 0-.4 0 .1.1.1.2.1s.2-.1.2-.2c.1-.1.3 0 .3.1s0 .2-.1.2c-.2 0-.4.1-.5.2l-.1.1c-.1.1-.1.1-.1.2l-.1.1c.1 0 .1.1.1.1.1 0 .2 0 .3-.1v-.2c.1 0 .1-.1.2-.1.2 0 .3.2.2.3h-.1c-.1.1-.2.3-.3.3-.2.1-.5.1-.7.2-.1.1-.1.2-.2.2s-.2.1-.3 0c0 .1-.2 0-.3 0 0 0 0-.1-.1-.2h-.1v-.1h-.8c-.1 0-.1.1-.1.1l-.1.1c-.1.1-.2.1-.3.1-.1 0-.2 0-.3.1-.2 0-.3.2-.4.3-.1.1-.2.1-.3.1v.1c-.2 0-.3.3-.4.5v.2c-.1.1-.1.3-.3.4v.1c.1.2.3.3.5.5 0 .1.1.1.1.1.1.1.1.2.2.4s.3.2.5.2c.1 0 .2.1.2.1.2 0 .5.1.7 0 .3.1.7 0 1 .1.1 0 .1.1.1.2.1.1.2.3.3.4.1.1.3.1.4.1 0 0 0 .1.1.2 0 .1 0 .1.1.2s.1.1.1.2-.1.2-.1.4v.2c.2.2.4.4.6.5 0 0 .1 0 0 .1.1 0 .1.1.2.2 0 .1 0 .1.1.2l.3.3c.1.1.3.1.4.1 0 0 .1 0 .1.1.1 0 .3.1.4 0 .1-.1.1-.2.2-.2.1-.1.3-.1.4-.1 0 0 .1 0 .1-.1s.1-.1.1-.2c.1 0 .2-.1.3-.1.2-.1.3-.3.5-.4.2-.1.4-.1.5-.2.1-.2 0-.4 0-.6 0-.1.1-.2.1-.3v-.5c0-.1-.1-.2-.1-.3 0-.1.1-.1.2-.1.1-.1.1-.3.2-.4 0 0 .1 0 .1-.1.1 0 0-.1 0-.2-.1 0-.1-.1-.1-.1-.1-.2-.3-.4-.5-.5-.1 0-.1-.1-.1-.1v-.1c-.1 0 0-.1-.1-.1h.1c.1-.1.1-.3.2-.4 0 0 .1 0 .1-.1v-.3c-.1-.1 0-.3 0-.4 0-.3 0-.5-.1-.8 0-.1-.1-.1-.2-.1 0 0 0 .1-.1.1 0 0 0 .1-.1.2 0 .1-.2.1-.2.2s0 .1-.1.2l-.1.1c.4-.3.3-.3.3-.2h-.3c-.6-.2-1.1-.4-1.6-.5h.3c.1 0 0-.1 0-.1.1 0 .2.1.3.2.2.1.5.1.7.2.2 0 .3.2.5.2s.3-.1.4-.1v-.1c.1-.1.2-.2.2-.3v-.3l.1-.1v-.4c.1 0 .1-.1.1-.1V19.4c0-.2 0-.4-.1-.5 0-.1-.1-.1-.2-.1 0 0 0 .1-.1.1s-.2 0-.2.1c-.1 0-.1.1-.1.1-.1.1-.2.2-.4.2-.1 0-.2 0-.2-.1-.1-.2.2-.2.4-.2l.1-.1c0-.1.1-.2.2-.2h.2c.1 0 .1-.1.2-.1 0 0 0-.1.1-.2 0-.1.1-.1.2-.2.1-.2.1-.4.2-.6.1-.1 0 .1.1.2s.2.1.3 0c.1-.1 0-.2.1-.2h.1c.1 0 .1.1.2.1 0 0 .1-.1.2-.1h.3c.2-.1.6 0 .6-.2 0-.3-.3-.6-.6-.7-.2-.1-.1-.4-.3-.6-.1 0 0-.1-.1-.2l-.1-.1-.1-.1v-.5c0-.1.1-.1.2-.1.1-.1.2-.1.2-.2v-.4l.1-.1c.2 0 .5.1.7-.1.1 0 .1-.1.1-.2.2-.2.4-.4.4-.8-.1.1 0 .1 0-.1.1.1.1 0 0 0m-4.5 5.4s0 .1 0 0c-.1.1-.1.1-.2 0 0-.1-.1-.1-.1-.2-.1 0-.1 0-.1.1h-.2c0-.1-.1-.1-.1-.2-.1-.1 0-.2.1-.2s.1 0 .1.1v.1c.1.1.1 0 .2 0h.3c0 .1.1.2 0 .3"/><path d="M15.6 36c1.3-1.9 5.2-3.9 9-3.9s8 2.2 9.6 1c0 0-1.7 1.4-5.1 1.4-3.4 0-4.7-1.7-7-1.7-2.4 0-4.8 1.9-5.9 3.5l-.6-.3z"/><path d="M27.7 31.8s1.1-.7 1.7-1.9c.6-1.2 2.1-3.2 3.7-4.4 0 0-1.7 5.5-3.5 5.7 0 0-.3.2.2.1s2.8-.9 3.6-1.1c.8-.1 2.8-.6 3.3-1.1.5-.4.8-.4.8-.4s-2.2 3.7-6.2 3.7c0 0-2-.1-3.6-.6"/><path d="M32.4 29.9s.4-.6.5-1.7c.1-1.1.8-3.6 2.7-6.3 0 0 .3 4.3-1.9 7 0 0-.1.4.1.1.3-.3 1.6-1.9 4.6-3.9 0 0 1.5-1.3 1.6-1.7 0-.1-1.2 6.1-7.6 6.5"/><path d="M36.1 25.8s.2-.7.2-1.3c0-.6-.3-2.6-.3-3.5 0-.9.1-2.6.8-3.7 0 0 0 1 .2 1.4.2.4.5 2.2.5 2.5 0 .2-.1 1.7-.4 2.5 0 0 .3-.2.6-.8.3-.6 1.1-1.7 2.2-2.8C41 19 41.3 18 41.3 18s.3 2-1.2 4.1c-1.5 2.1-2.1 1.8-2.9 2.6 0 0-1 1.1-1.1 1.1"/><path d="M38.4 20.9s0-1.2-.3-1.6c-.2-.4-1.6-2.8-1.3-5.9 0 0 .2-.2.6 1 .4 1.2 1 1.6 1.2 2.8.2 1.2.2 1.7.2 1.7s.1.2.1 0c0-.1.1-1.8.8-3.2.7-1.5 1.6-2.9 1.5-3.9 0 0 .4 0 .3 1.6.1 1.6-.3 4.4-3.1 7.5"/><path d="M39.2 16.1s-.5-1.1-.8-1.5c-.3-.4-2.7-3.7-2.9-5.3 0 0 .2-.1.4.3s1.3 1.5 1.5 1.7c.2.2 1.4 1.4 1.5 2.8 0 0 .1.1-.1-2.1s.7-3.7-.1-5.3c0 0 1.1.2 1.7 4.8 0 0 0 1.6-.9 3.6.1-.1-.2 1-.3 1"/><path d="M38.3 11s-.9-.9-1.6-1.3c-.7-.4-2.9-2.6-3.3-4.3 0 0 .1-.2.8.7.5.7 1.1.4 2.7 2.4 0 0 .2.5.3.4.1 0-.1-.5-.1-.5S37 7.2 37 6.8c0-.4-.7-2.8-.9-3.1 0 0 2.2 1.2 2.5 4.7-.1 0-.2 2.5-.3 2.6"/><path d="M36.5 7.3s.1-3-3.8-4.6c0 0 1.4 2.8 2.4 3.5 1 .7 1.4 1.1 1.4 1.1"/><path d="M26.3 36c-1.3-1.9-5.2-3.9-9-3.9s-8 2.2-9.6 1c0 0 1.7 1.4 5.1 1.4 3.4 0 4.7-1.7 7-1.7s4.8 1.9 5.9 3.5l.6-.3z"/><path d="M14.2 31.8s-1.1-.7-1.7-1.9c-.6-1.2-2.1-3.2-3.7-4.4 0 0 1.7 5.5 3.5 5.7 0 0 .3.2-.2.1s-2.8-.9-3.6-1.1c-.8-.1-2.8-.6-3.3-1.1-.4-.4-.8-.4-.8-.4s2.2 3.7 6.2 3.7c0 0 2-.1 3.6-.6"/><path d="M9.5 29.9s-.4-.6-.5-1.7c-.1-1.1-.8-3.6-2.7-6.3 0 0-.3 4.3 1.9 7 0 0 .1.4-.1.1-.3-.3-1.6-1.9-4.6-3.9 0 0-1.5-1.3-1.6-1.7 0-.1 1.2 6.1 7.6 6.5"/><path d="M5.8 25.8s-.2-.7-.2-1.3c0-.6.3-2.6.3-3.5 0-.9-.1-2.6-.8-3.7 0 0 0 1-.2 1.4-.2.4-.5 2.2-.5 2.5 0 .2.1 1.7.4 2.5 0 0-.3-.2-.6-.8-.3-.6-1.1-1.7-2.2-2.8C.9 19 .6 18 .6 18s-.3 2 1.2 4.1c1.5 2.1 2.1 1.8 2.9 2.6.1 0 1 1.1 1.1 1.1"/><path d="M3.5 20.9s.1-1.2.3-1.6c.2-.4 1.6-2.8 1.3-5.9 0 0-.2-.2-.6 1-.4 1.2-1 1.6-1.2 2.8-.3 1.2-.3 1.7-.3 1.7s-.1.2-.1 0c0-.1-.1-1.8-.8-3.2-.7-1.5-1.6-2.9-1.5-3.9 0 0-.4 0-.3 1.6 0 1.6.4 4.4 3.2 7.5"/><path d="M2.7 16.1s.5-1.1.8-1.5c.3-.4 2.7-3.7 2.9-5.3 0 0-.2-.1-.4.3s-1.3 1.5-1.5 1.7c-.2.2-1.4 1.4-1.5 2.8 0 0-.1.1.1-2.1s-.7-3.7.1-5.3c0 0-1.1.2-1.7 4.8 0 0 0 1.6.9 3.6-.1-.1.2 1 .3 1"/><path d="M3.6 11s.9-.9 1.6-1.3c.7-.4 2.9-2.6 3.3-4.3 0 0-.1-.2-.8.7-.5.7-1.1.4-2.7 2.4 0 0-.2.5-.3.4-.1 0 .1-.5.1-.5s.3-1.3.3-1.7c0-.4.7-2.8.9-3.1 0 0-2.2 1.2-2.5 4.7-.1.1 0 2.6.1 2.7"/></g></svg>